<svg xmlns="http://www.w3.org/2000/svg" width="367" height="222" viewBox="0 0 367 222">
    <g fill="none" fill-rule="evenodd">
        <g stroke="#EEE">
            <g>
                <path fill="#FFF" d="M0.5 0.5H366.5V221.5H0.5z" transform="translate(-680 -1162) translate(680 1162)"/>
                <path d="M22.491 0L22.491 222M43 0L43 222M63.5 0L63.5 222M84.009 0L84.009 222M104.5 0L104.5 222M125.009 0L125.009 222M145.5 0L145.5 222M166.009 0L166.009 222M186.5 0L186.5 222M207.009 0L207.009 222M227.5 0L227.5 222M248.009 0L248.009 222M268.5 0L268.5 222M289.009 0L289.009 222M309.5 0L309.5 222M330.009 0L330.009 222M350.5 0L350.5 222M0 22L367 22M0 42L367 42M0 62L367 62M0 82L367 82M0 102L367 102M0 122L367 122M0 142L367 142M0 162L367 162M0 182L367 182M0 202L367 202" transform="translate(-680 -1162) translate(680 1162)"/>
            </g>
        </g>
    </g>
</svg>
