<svg xmlns="http://www.w3.org/2000/svg" width="800" height="165" viewBox="0 0 800 165">
    <g fill="none" fill-rule="evenodd">
        <g stroke="#EEE">
            <g>
                <path fill="#FFF" d="M0.5 0.5H799.5V164.5H0.5z" transform="translate(-680 -927) translate(680 927)"/>
                <path d="M22.491 0L22.491 165M43 0L43 165M63.5 0L63.5 165M84.009 0L84.009 165M104.5 0L104.5 165M125.009 0L125.009 165M145.5 0L145.5 165M166.009 0L166.009 165M186.5 0L186.5 165M207.009 0L207.009 165M227.5 0L227.5 165M248.009 0L248.009 165M268.5 0L268.5 165M289.009 0L289.009 165M309.5 0L309.5 165M330.009 0L330.009 165M350.5 0L350.5 165M370.991 0L370.991 165M391.5 0L391.5 165M411.991 0L411.991 165M432.5 0L432.5 165M452.991 0L452.991 165M473.5 0L473.5 165M493.991 0L493.991 165M514.5 0L514.5 165M534.5 0L534.5 165M554.991 0L554.991 165M575.5 0L575.5 165M595.991 0L595.991 165M616.5 0L616.5 165M636.991 0L636.991 165M657.5 0L657.5 165M677.991 0L677.991 165M698.5 0L698.5 165M717.5 0L717.5 165M738.009 0L738.009 165M758.5 0L758.5 165M779.009 0L779.009 165M799.5 0L799.5 165M0 22L800 22M0 42L800 42M0 62L800 62M0 82L800 82M0 102L800 102M0 122L800 122M0 142L800 142" transform="translate(-680 -927) translate(680 927)"/>
            </g>
        </g>
    </g>
</svg>
