<svg xmlns="http://www.w3.org/2000/svg" width="301" height="475" viewBox="0 0 301 475">
    <g fill="none" fill-opacity=".8" fill-rule="evenodd" stroke-linecap="round" stroke-linejoin="round">
        <g fill="#FFF" stroke="#6A6A6A">
            <g>
                <path d="M126.883 98.19c-.59 1.25-.63 3.96-.17 4.42.46.45 1.92 2.08 1.08 3.66-.83 1.59-1.41 5.67-3.08 7.34-1.67 1.66.67 8.5-.42 9.58-1.08 1.08-1.75 1.83-1.75 1.83s-1.41 1.59-1.41 2.59c0 1-3.75 3.16-3.75 4 0 .83-2.42 2.83-2.42 3.33s-4 5.08-6.5 5.67c0 0-2.42 1-6.17 1s-5.41 5-6.33 6.66c-.92 1.67-6.92 2.25-7.75 2.25-.83 0-3.92-3.25-5.67-3.25s-7.04-1.29-8.5.17-4.9 3.43-10.03 2.67c-.05-.46-.68-.72-1.01-1.05-.5-.5-7.29-5.41-7.71-7.08-.41-1.67 3.71-.54 4-1.62.3-1.09 1.84-3 .21-3.21-1.62-.21-2.96 1.16-3.29 1.16-.33 0-.62-.91-.96-.91-.33 0-1.16 1.62-1.71 2.16-.54.55-3-.79-3-1.66 0-.88 1.34-.96 1.75-1.38.42-.41-.37-5.62.09-6.08.46-.46 3.04.21 3.5-.25.46-.46 1.12-1.33.66-1.79-.46-.46-5-.29-5.5.21s-1.93 2.18-2.79 3.04c-.85.85-2-2.79-2-3.42 0-.62-1.04-1.54-1.04-2.12 0-.59 1.15-.23 1.58-.67.44-.44-.62-3.46-1.2-4.04-.59-.58 3.04-3.34 4-3.34.95 0 4.2 3.59 5.2 3.59s.75-3.29 3-3.29-.66-2.79-1.5-3.17c-.83-.37-4.04-3-6-3-.66 0-.37 1.25-.95 1.25-.59 0-1.61-1.23-.59-2.25.64-.64.9-1.88.21-2.56-.69-.69-4.56-4.07-4.56-5.69s1.25-2 1.25-2.88c0-.87-.25-6.5-.75-7.62s-5.06-7.38-6.69-7.38c-1.63 0-1.53 3.6-2.25 4.32-.72.72-2.25-.38-3.19-1.32-.94-.93-1.12 1.76-1.69 1.76-.56 0-1.74-1.82-2.31-1.82-.56 0-3.69-.68-3.69-2.5 0-1.81 2.76-.31 3.32-1.62.56-1.32-1.57-3.73-2.02-3.73-.46 0-.92 2.37-1.8 2.37-.87 0-1.91-1.12-3-1.12-1.08 0-2.33-.92-2.33-2.34 0-1.41.73-2.31 1.21-2.79s1.48-1.43 1.92-1c.43.44.21 3.09.21 3.09s1.81 1.31 1.95 1.16c.15-.14 1.17-.96 1.17-1.7 0-.76-.56-5.38-.56-6.63s3-3.06 3.81-3.06 5.7 5.17 6.58 6.06c1.15 1.15 7.42 1.37 7.42 1.37s.5-2.62 1.75-2.62 1.37 1.88 2 2.5c.63.62-1.13 6.75-.25 6.75.55 0 6.34 4.25 10.9 7.51-1 1-.15 9.41.93 10.49 5.96 5.96 14.25 2.51 15.07 3.33 1.74 1.75 3.1.25 4.43-.33 1.34-.58 1.67-5.75 4.09-5.75 2.41 0 3.5-2.08 3.5-3.08s-1.41-2.34-2-2.93c-.59-.59-2.21.8-3 1.59-.8.79-2.11.67-2.11-1.59 0-2.27 2.11-5.74 2.11-6.74s-1.35-2.15-2.11-2.92c-.76-.76-5.31-.33-6.56 0-1.25.34-2 2.75-3.17 2.75-1.16 0-3.04.63-4.08 1.67s-3.11 4.71-3.11 4.71c-4.47-3.27-12.05-8.89-12.58-9.77-.75-1.25-.4-8.72-.75-9.07-.34-.34-1.18-2.24 3.56-4.31 4.76-2.06 1.41-3.22.76-2.56-.66.66-3.32 2.13-4.44 2.13-.15 0-.34.09-.57.25-1-10.77 5.13-9.63 5.88-10.38s2.44-4.19 3.87-5.63c1.44-1.43 5.5-3.37 8.13-4.24 2.63-.88 1.19-3.07 2.75-4.63s3-1.87 4.12-1.87c1.13 0 5.26-5.88 6.13-8 .02-.05.04-.09.06-.14 1.5-.34 3.1-.54 4.36-.07 2.66 1 4 4 4 6.33s2.66 0 4.33 0 2.83 3.33 2.83 5 6.84.67 9.84 1.5.66 7.83 1.66 8.83c1 1 2.59-.08 3.67 1 1.08 1.09 1.67 3.67 2.33 3.67.67 0 2.59.75 3.5 1.67.92.91 1 3.33 0 4.33s-5.16 1.83-5.16 4-.34 3.33.75 3.33c1.08 0-.04 4.63-.75 5.34-.71.7-.34 3.5.33 3.5s-.46 4.46.33 5.25c.8.79 4.34.41 6.09.91s2.79 2.96 3.75 3.92 3.16 0 4.33 0 2.33 1.33 4.67 1.33c2.33 0 1.37 3.8.83 4.34-.54.54-2.5.08-3.08 1.33z" transform="translate(-638 -881) translate(639 881)"/>
                <path d="M241.753 133.01c-2.021 0-5.82 2.27-7.73 4.18-1.9 1.91-.56 4.63-3.62 4.31-3.06-.31-3.75-3.18-6.06-3.18-2.32 0-5.57 3.24-7.32 3.24s-1.56-.81-3.75-2c-2.19-1.18-4.93.57-6.43-.18s-.57-6-4.57-5.32c-4 .69-3.22 6.35-3.93 7.07-.72.72-1.82 2.31-6.26 1.25-4.43-1.06-3.62-4.32-7.62-6.44s-7.37 1.75-11-1.88c-3.63-3.62-5.69 3.57-9.25 0-3.56-3.56 9-8.37 1.75-7.59-7.25.77-7.5-5.28-8.38-2.15-.87 3.12-4 .87-5.62.87s-2.25 3.5-3.88 3.5c-1.62 0-5.87-6.87-7.24-6.87-1.38 0-3.5 2.5-3.5 6.22 0 3.73-5.88 3.02-9.63 3.02-3.75 0-5.17-6.04-5.17-6.04s.67-.75 1.75-1.83c1.09-1.08-1.25-7.92.42-9.58 1.67-1.67 2.25-5.75 3.08-7.34.84-1.58-.62-3.21-1.08-3.66-.46-.46-.42-3.17.17-4.42.58-1.25 2.54-.79 3.08-1.33s1.5-4.34-.83-4.34c-2.34 0-3.5-1.33-4.67-1.33s-3.37.96-4.33 0-2-3.42-3.75-3.92-5.29-.12-6.09-.91c-.79-.79.34-5.25-.33-5.25s-1.04-2.8-.33-3.5c.71-.71 1.83-5.34.75-5.34-1.09 0-.75-1.16-.75-3.33s4.16-3 5.16-4 .92-3.42 0-4.33c-.91-.92-2.83-1.67-3.5-1.67-.66 0-1.25-2.58-2.33-3.67-1.08-1.08-2.67 0-3.67-1s1.34-8-1.66-8.83c-3-.83-9.84.17-9.84-1.5s-1.16-5-2.83-5c-1.67 0-4.33 2.33-4.33 0s-1.34-5.33-4-6.33c-1.26-.47-2.86-.27-4.36.07 1.42-3.4 2.82-5.12 12.19-5.12 2.24 0 1.68-2.24 4.12-2.24 6.22 0 14.9.2 20.76-.39 4.4-.44 6.5-2.05 8.74-.61 10.13 6.5 15.88 2.62 20.5 3.24 4.63.63 4.63.13 9.38-4.62 4.75-4.75 7.33-10.67 8.33-15.17s6.29-7.27 6.29-7.27c.44.44 3.88 4.38 4.26 10.19.37 5.81 5.37 4.81 7.56 13.75 2.18 8.94 6.06 13.12 6.94 14.75.87 1.63.68 9 8 14.06 7.31 5.07 10.43 19.44 12 19.81 1.56.38 8.81 8 10.06 11s.37 5.26 3.5 6.88c3.12 1.62 5.25 13.88 7.25 14.94 2 1.06 5.69 2.98 5.69 9.75 0 1.31 5.31 5.5 6.18 8.19.88 2.68.13 7.31 1.13 7.31.37 0 .47.81.6 1.88z" transform="translate(-638 -881) translate(639 881)"/>
                <path d="M189.583 141.22c-1.44.41-2.06-1.34-4.12-.72-2.06.63-3.12 3.38-3.62 4.5-.5 1.13-6.26 5.25-7.57 7.32-1.31 2.06.57 6.43-.69 7.68-1.25 1.25-5.43 2.5-6.81 2.5-1.37 0-3.19-4.62-4.37-5.18-1.19-.57-5.25.12-4.82 1.62.44 1.5-.12 2.5-1.43 2.5s-2.07-1.94-3.31-2.31c-1.26-.38-1.79.72-2.32 1.25-.53.53-2.56-.44-4.68 1.68-2.13 2.13-.63 4.63.74 6 1.38 1.38 1.19 3-.31 3.38-1.5.38-2.62-2.06-4.56-2.44-1.94-.37-5.75 1.38-7.19 2-1.44.63 0 2.32 1.56 2.88 1.57.56 3.19 2.25 3.19 3.18 0 .94-.56 1.38-1.87 1.38-1.32 0-2.32-2-3.44-2s-2.91 2.66-3.25 3c-.34.34-4.06-.19-4.56.94-.5 1.12-.31.62 3.5 2.25 3.81 1.62 5.06 5.93 5.06 6.56 0 .63-1.53 1.29-2 1.76-.47.48-.13 8.3-.13 10.11 0 1.82-.46 2.54-.93 3-.47.47-1.63 2-1.31 3.07.32 1.06 2.43.37 3.26.37.82 0 1.55-1.37 2.55-1 1 .38 1.9 2.91 2.75 3.75.84.85.72-.03 1.25-.56s2.5-.44 3.69-.44c1.18 0 1.68 5.75.43 6.07-1.25.31-3.43 4.87-3.43 5.93 0 1.07-2.69 3.5-3.07 3.88-.37.37-.43 2.87-1.69 2.87-1.24 0-1.5 1.82-2.48 1.82-.99 0-1.83.62-4.39 1.31-2.56.69-8.06.25-13.37-4.5-.17-.15-.33-.3-.48-.45-4.69-4.65-2.35-10.04-2.78-11.49-.43-1.5-6-3.25-7.43-3.25-1.44 0-2.63-5.06 1.43-9.69 4.07-4.62 1.76-5.62-2.18-7-2.22-.77-4.9-2.96-6.89-4.8-1.55-1.43-2.69-2.65-2.86-2.82-.41-.41-.66-4.78-1.19-5.31-.53-.54.69-3.82 0-4.5-.69-.69-2.84.78-3.62 0-.79-.79-.19-3.44.24-5.5.44-2.07 4.07-4.94 6.57-4.94s2.75-.82 2.75-1.94-6.63-6.81-7.38-7.56-.31-1.75-.68-3c-.38-1.25-3.13-3.86-3.13-3.86.83 0 6.83-.58 7.75-2.25.92-1.66 2.58-6.66 6.33-6.66s6.17-1 6.17-1c2.5-.59 6.5-5.17 6.5-5.67s2.42-2.5 2.42-3.33c0-.84 3.75-3 3.75-4s1.41-2.59 1.41-2.59 1.42 6.04 5.17 6.04 9.63.71 9.63-3.02c0-3.72 2.12-6.22 3.5-6.22 1.37 0 5.62 6.87 7.24 6.87 1.63 0 2.26-3.5 3.88-3.5s4.75 2.25 5.62-.87c.88-3.13 1.13 2.92 8.38 2.15 7.25-.78-5.31 4.03-1.75 7.59 3.56 3.57 5.62-3.62 9.25 0 3.63 3.63 7-.24 11 1.88 3 1.59 3.29 3.82 5.12 5.28zM66.713 308.32c-.63.62-4.37 2.87-4.37 4 0 1.12-3.13.12-4.13-.88s-10.69.81-11.63-.12c-.93-.94-5.37-4.5-5.37-9.5s3.37-5.88 5-5.88 4.08 2.62 5.5 2.62c1.5 0 2.13-1.74 5.13-1.74s3.99 2.25 5 3.24c1 1 3.74.51 4.87 1.63 1.13 1.12.63 6 0 6.63zm59.13 48.37c-.26-.25.37-1.46-.8-2.08-1.16-.63.38-4.88-.95-5.59-1.34-.7.08-6.66-.8-6.95-1.82-.61-1.95-2.55-1.95-3.46 0-.92 3.12-4.63 2.04-5.71-1.09-1.08-2.36-.15-2.8-.58-1.14-1.15 1.55-1.76 1.09-3-.46-1.26-1.71-.84-3.21 0-1.5.83-.21 3.04-1.21 3.04s-1.91 3.37-2.79 3.16c-.88-.21-5.96-6.5-5.96-7s2.02-3.39 3.38-2.04c1.35 1.36 1.62 2.83 4.12 1s1.34-7.04 3.38-5.42c.93.74 2.92 1.55 5.07 2.07 0-10.07-10.74-20.32-12.24-21.81-.52-.52-.91-1.66-1.32-3.04-.78-2.63-1.59-6.12-3.31-7.84-2.62-2.62-9.24-4.25-9.24-2.88 0 1.38-4.38 4-5.26 4-.87 0-.5-1.24-1.74-1.24-1.26 0-4.5.24-5.63-.88s-7.37-.62-8.63.62c-1.25 1.25-6.62 1.05-6.62-.45s1.83-3 .67-4.17c-1.17-1.17-.67-2-.67-4.67 0-2.66-3.67-4.16-3.67-2.33s-2.33 4.86-4.16 4.86c-1.84 0-1.75-2.94-3.17-4.36-1.42-1.42-2.17-3.67-7.83-2.67-5.67 1-6.34 6-7 8.84-.67 2.83-4.67 6.16-10 5.33-5.34-.83-5.34-4.33-5.34-7s-4.21-5.08-4.21-5.08c-1.33.96.13 4.37-.41 4.91s-2.5-.66-3.96.34.42 4.33-.54 5.83-2.21 3.33-1.04 8.79c1.16 5.46 6 8.96 6.37 9.88.38.91-1.83 5.33-3.16 5.33-1.34 0-.69-3.1-1.34-3.75-.64-.65-2.25-.13-2.66-.54-.42-.42.29-5.54-.55-5.54-.83 0-1.7 2.04-2.91.83-1.21-1.21-1-.5-3.59-.21-2.58.29-1.33 2.21-2.58 2.21s-3.71-.33-3.42 2.21c.29 2.54 1.59 2.37 3.13 2.58 1.54.21.02 3.44 1.64 3.44 1.63 0 1.48-1.73 2.86-2.04 1.37-.31.54-2.34 1.19-2.23.64.1 6.37 2.79 5.27 3.33-1.11.54-1.59 3.19-1.59 3.73s-1.98.4-2.87.73c-.9.33.5 1.6.5 1.92 0 .31-.08 3.31.75 3.31s2.71-1.44 3.21-2.65 1.12-1.25 1.87-.5-.21 4.71.5 5.42 1.21 3.87.92 4.67c-.29.79-2.04 2-2.92 2-.87 0-2.14 2.39-1.25 3.29.9.89 1.36.39 1.75 0 .4-.4 4.17-.34 5.71-.34s.62 1.17 1.67 1.34c1.04.16 1.64-.98 2.41-1.75.77-.77-.54-7.38.38-7.54 2.42-.44 2.96 4.54 2.96 4.87 0 .33 5.45.04 6.08.25.62.21 1.69.73 1.21 1.21s-5.54.08-6.79.33-2.57 3.57-3.05 4.04c-.47.48-6.87.59-7.54.42-.66-.17-1.16-2.16-2-1.96-.83.21-.64 1.73-.91 2s-.96 0-.96.5c0 1.85 4.42 1.21 5.46 1.42 1.04.21.87 1.08 1.29 1.08.42 0 1.04-1.46 2.04-1.21s3.29 5.17 4.46 6.34c1.17 1.16 5.67 2.83 3.79 3.75-1.87.91-3.33-1.54-4.75-1.84-1.42-.29-2.25 1.8-3.17 1.8-.91 0-1.41-1.84-2.87-2.71-1.46-.88-.21-3.13-1.96-4.09-1.75-.95-2.96-1.41-2.96-.04 0 1.38-1.29 2.13-1.54 2.92s1.88.75 3.21.75 2.75 3.42 3.25 4.25c.5.83-.58 2.08-1.75 2.08s-2.83-2-3.54-2-3.79-2.21-3.79-5.25-1.5-7.87-2.92-7.33-4.33 4.42-3.04 8.33c1.29 3.92 9.16 9.75 10.08 10.04.92.3 4.73 1.03 5.54.21.81-.81 3.12-1.77 4.02-1.24.91.54.44 1.88.13 2.75-.32.88-2.13-.18-3.91 1.29-1.78 1.46-.44 3.28-.06 4.37.37 1.09-1.69 2.87-.84 3.47.85.59 2.54-.7 3.03-.22 1.06 1.06-.67 2.16-1.91 3.53-1.11 1.24-1.44 2.81-.78 2.81 2.06 0 3.53 2.28 3.19 3.16-.35.88-1.1 2.78 0 2.78 1.09 0 6.62-2.87 7.4-4.12.78-1.25 1.06-4.79 1.63-5.35 1.06-1.06 4.58-2.89 6.82-5.69 2.17-2.72 3.37-6.03 3.37-6.62 0-1.21-1.05-1.21-1.05-1.79 0-.59 1-3.75 2.09-3.5 1.08.25 1.33 7.04 1.04 8.87-.29 1.84 4.21 6.46 5.12 6.46.92 0 1.04-1.2 1.94-1.2.89 0 1.87 1.18 2.26 1 1.02-.44 2.41-2.05 2.92-3.75.69-2.26.33-4.84 1.08-5.11 1.31-.46 1.36-6.03.64-6.29-.72-.27-1.14-.86-.89-1.38.75-1.55 3.89-.95 4.52-1.26.62-.32 5.53-5.13 6.23-5.66.7-.53 4.59.46 5.28-.23.7-.7 2.39-5.6 3.49-5.32 1.09.28 1.45 2.07 1.79 2.41.35.34 1.64-.97 2.27-.56.62.4.91 6.47-.25 7.06-1.16.59-1.83-1.61-2.47-1.77-.64-.15-2.06 1.32-2.06 1.91 0 .59 2.12 1.45 2.29 2.02.18.56-2.26 5.18-3.84 5.34-1.58.16-1.39-1.44-1.39-1.86 0-.42 1.06-1.14 1.28-1.56.22-.42-.53-1.78-1-1.78s-3.38 4.6-4.5 5.95c-1.13 1.35 0 2.62.12 3.29.13.67-1.53.85-1.96 1.27-.42.43 1.05.86 1.52.86.48 0 2.67-1.4 3.07-1.96.39-.56 1.89-.74 2.05-.74 2.56 0 1.62 1.81 3.5 1.81 1.87 0 1.86 3.27 2.22 3.63.36.36 2.56 2.28 3.06 2.09.5-.19.81-2.25 1.78-2.25 3.19 0 7.75-7.03 9.56-8.03 1.82-1 2.88-3.31 2.16-4.85-.72-1.53-8.31-8.39-8.54-8.62-.23-.23-.13-1.21.21-1.21.33 0-.05-7.71.58-8.33.63-.63 7.54-.13 8.58-.67 1.05-.54 1.42-3.62 2.75-3.29 1.34.33 0 5.12.67 5.29.67.17 2.27 1.48 2.13 1.63-.15.14-.42 2 .12 2.91.54.92.92 1.54-.54 2.54s1.12 2.42-.17 5.88.92 1.21 2.96 2.79 1.79.96 1.79.63c0-.34 1.63-.13 2-.13.38 0-.5-.46-.83-1.33-.33-.88-1.33-.92-1.58-2.34-.25-1.41 1.87-5.95 2.95-5.95 1.09 0 1.84 1.37 2.75 1.87.92.5 2.27-.56 2.88.04.6.61.66 4.17-.04 4.5-.71.34-.84 4.88-.59 6.13s2.38 2 2.67 2.67c.29.66 3.33.5 3.63.2.29-.29-.5-.83-.75-1.08z" transform="translate(-638 -881) translate(639 881)"/>
                <path d="M66.713 308.32c-.63.62-4.37 2.87-4.37 4 0 1.12-3.13.12-4.13-.88s-10.69.81-11.63-.12c-.93-.94-5.37-4.5-5.37-9.5s3.37-5.88 5-5.88 4.08 2.62 5.5 2.62c1.5 0 2.13-1.74 5.13-1.74s3.99 2.25 5 3.24c1 1 3.74.51 4.87 1.63 1.13 1.12.63 6 0 6.63zM133.603 229.82v10.66c-2.49.91-14.02 9.58-16.52 13.46-2.5 3.88-2.93 9.56-4.5 11.12-1.56 1.57-1.62 6.5.52 7.63s2.24 9.37 2.24 11.87-2 3.76-3.38 6.38-1.07 8.34-1.07 8.34c-.78-2.63-1.59-6.12-3.31-7.84-2.62-2.62-9.24-4.25-9.24-2.88 0 1.38-4.38 4-5.26 4-.87 0-.5-1.24-1.74-1.24-1.26 0-4.5.24-5.63-.88s-7.37-.62-8.63.62c-1.25 1.25-6.62 1.05-6.62-.45s1.83-3 .67-4.17c-1.17-1.17-.67-2-.67-4.67 0-2.66-3.67-4.16-3.67-2.33s-2.33 4.86-4.16 4.86c-1.84 0-1.75-2.94-3.17-4.36-1.42-1.42-2.17-3.67-7.83-2.67-5.67 1-6.34 6-7 8.84-.67 2.83-4.67 6.16-10 5.33-5.34-.83-5.34-4.33-5.34-7s-4.21-5.08-4.21-5.08c1.34-.96 3.3-8.79 5.38-9.79s4.17.5 7.62-1.05c3.46-1.54 5.8 3.13 4.59-1.2-1.21-4.34-3.15-2.82-3.63-2.34s-4.62 1.88-7.08 1.21c-2.46-.67-5.92-4.29-3.5-7.12 2.42-2.84 6.21-2.25 7.12-2.67.92-.42 1.71-4.17 3.38-4.17s-.02-5.1.67-5.79c.68-.69 3.12 1.79 3.54 1.79.41 0 3.46.21 4 .75s5.79 5.04 6.25 4.59c.46-.46-8.13-10.34-8.13-11.42 0-1.09 5.34-.59 6.42-.79 1.08-.21.71-2.88 1.42-2.88.7 0 1.54.04 1.54-.33 0-.38-5.13-1.04-5.71-.13-.58.92-2.08 1.67-3.13 1.67-1.04 0-9.95-6-10.54-7.17-.58-1.16 1.63.25 2.46.25.83 0 3.79-2.29 7.17-2.29 3.37 0 6.83-2.33 6.21-2.96 0 0 5.33-1.41 6.16-3.75.84-2.33 1.17-5.16 3.17-5.16s1.5.08 4.08-.42c2.59-.5 8.44-.86 11 5.67.92 2.33 4.67-1.13 6.59-1.13 1.91 0 3.62 1.42 4.41.63.8-.79 1.84-3.34 3.34-3.34 1.5 0 4.66 2.5 4.66 5.17s1.5 6.33 5.42 6.92c3.92.58 4.58 1.5 5.25-.34.67-1.83 1.33-3.66 2.67-3.66 1.33 0 2.16 2.17 3.83 1.71 1.67-.46 3.65-3.64 3.65-3.64.15.15.31.3.48.45 5.31 4.75 10.81 5.19 13.37 4.5 2.56-.69 3.4-1.31 4.39-1.31z" transform="translate(-638 -881) translate(639 881)"/>
                <path d="M115.363 226.18s-1.98 3.18-3.65 3.64c-1.67.46-2.5-1.71-3.83-1.71-1.34 0-2 1.83-2.67 3.66-.67 1.84-1.33.92-5.25.34-3.92-.59-5.42-4.25-5.42-6.92s-3.16-5.17-4.66-5.17-2.54 2.55-3.34 3.34c-.79.79-2.5-.63-4.41-.63-1.92 0-5.67 3.46-6.59 1.13-2.56-6.531-8.41-6.17-11-5.67-2.58.5-2.08.42-4.08.42s-2.33 2.83-3.17 5.16c-.83 2.34-6.16 3.75-6.16 3.75-.63-.62-3.8.5-5 .96-1.21.46-5.59-3.62-5.79-4.29-.21-.67.01-5.71-5.96-5.71-1.17 0-3.61-.021-4.29-.71-.69-.68 3.7-4.16 5.95-4.71 2.25-.54-2.75-3.37-2.75-3.54 0-.16-.02-2.39.21-2.62.23-.23 1.96-2 1.96-2.79 0-.8-4.29-.92-4.29-1.71 0-.79 5.33-2.34 5.33-3.63s-4.87-2.33-5.21-3.96c-.33-1.62 7.15-5.851 6.75-6.25-.39-.39-2.62-.87-3.29-.62-.67.25-1.87 2.37-2.58 2.71-.71.33-.86-3.441-1.17-3.75-.31-.31-.54.12-.54-.63s3.17-1.58 3-2.54c-.17-.96-2.42-1.25-3.13-4.75-.4-2.01 2.18-1.57 3.04-2.24.64-.5-1.62-1.31-1.62-3.55 0-.63.46-.81.77-2.37.32-1.571-2.18-1.76-2.18-2.44 0-.69-.44-4.631-2-4.631-1.57 0-.57 5.631-1.26 7-.68 1.381-3.06 3.071-4.37 3.071s.38-8.63-.5-9.5c-.88-.88-4.87 3.429-4.87 4.24 0 .82 3.18 1.54 3.18 3.82 0 1.119-1 1.119-1 1.119s.56 3-1.18 3.821c-1.76.81-.66-5.04-1.32-5.69-.65-.66-1.06-4.57-3.18-4.57-2.13 0-2.29 1.1-2.76 1.57-.46.47-3.68-.31-3.68-1.25s4-.25 3-2.94c-1-2.691-3-2.691-3.82-.75-.81 1.94-1.12-1.25-.56-2.31s-.31-1.82 0-2.82c.32-1 1.56-3.43 1.94-3.061.38.381.78 3.531 1.06 3.821.28.28 1.06 1.37 1.44 1 .38-.38-.34-8.91.12-9.38.47-.47 2.29-.47 2.69-.06.41.4.28 2.28.69 2.68.41.41 2.86-1.771 2.31-4.061-.31-1.309.81-.559 1.13-.869.31-.31-1.19-3.57.62-4.25 1.82-.69 1.13 2.659 1.48 3.02.36.349.92 1.46.46 2.25s-1.67 5.25-1.42 6.08c.25.83 1.88 2.79 2.38 2.79s-.58-1.86-.58-2.521c0-.649 1.04-2.479 1.4-2.119.36.36 2.63-.131 2.63-.56 0-.44.01-1.9.59-2.47.58-.58 1.97-.04 2.34-.41.38-.37-.87-2.941-1.56-2.941-.69 0-3.19-1.559-3.19-2.179 0-.63.94-1.44.94-1.821 0-.369-2-.75-2-1.179 0-.44 1.22-1.79 2.03-1.79.82 0 1.22 1.1 1.6 1.1.37 0 2.9-.66 3.9.03 1 .69-1.47 3.089-1.28 3.56.19.47 2.45-.11 2.88.31.42.429 1.06 2.41-.1 3.88-1.15 1.47-1.72 4.78-1.09 5.06.62.279 3.37-.721 3.37-1.34 0-.631.5-6.47 1.5-7 1-.53 1.82 3.93 2.88 4.15 1.06.219-.72-10.34-3.75-13.37-3.03-3.03 3.03 1.69 4.47 3.91 1.44 2.21 4.15 5.429 5.18 5.62 1.04.19 2.17-2.5 3.38-2.79 1.21-.29 2.12 3.08 2.79 3.75.67.66 1.75-2.13 2.46-2.13s2.08-.08 2.71.88c.62.96-.96 2.04-.96 2.62 0 .59.62.42 1.62 1.05 1 .62.94 2.639 1.25 2.95.32.32-.62 6.96.96 7.71 1.59.75.84-2.04 1.25-2.46.42-.41 1.84-1.25 1.84-1.66 0-.42-1.09-1.84-.92-2.71.17-.88 2.96-1.5 4.08-2.63.38-.38.5-.67.47-.91 5.13.759 8.57-1.21 10.03-2.67 1.46-1.46 6.75-.17 8.5-.17s4.84 3.25 5.67 3.25c0 0 2.75 2.61 3.13 3.86.37 1.25-.07 2.25.68 3s7.38 6.44 7.38 7.56c0 1.12-.25 1.94-2.75 1.94s-6.13 2.869-6.57 4.94c-.43 2.06-1.03 4.71-.24 5.5.78.78 2.93-.69 3.62 0 .69.679-.53 3.96 0 4.5.53.53.78 4.9 1.19 5.31.17.17 1.31 1.39 2.86 2.82 0 0-6.3 1.99-7.3 5.74s-4 4.63-4 6.63.63 5.12 3.25 6c2.62.87-.13 6.37.62 7.12.76.75 3.38.25 3.38-1.88 0-2.12-.25-3.75.75-4.74 1-1 2.26 1.21 3.3 2.24 1.04 1.04 1.95 2.13 3.57 2.13 1.63 0 4.07-1.75 4.07-1.75 1.43 0 7 1.75 7.43 3.25.43 1.45-1.91 6.84 2.78 11.49zM245.633 278.77c-2 0 .1-7.66-1.67-7.66-2.33 0-3.67 7.5-3.67 17.66 0 .4-.15.7-.4.93 0 0-4.93-1.26-7.1-1.26-2.16 0-2.7-1.21-3.41-1.92-.71-.7.83-2.83 0-3.66-1.5-1.5-5.42-.42-7.09-2.09-1.66-1.66-1.91-3.16-3.75-4.08-1.83-.92-4.08-1.83-4.91-2.67-.84-.83 0-3.58.83-4.41.83-.84.75-2.5.75-2.5-.02-.02-.04-.04-.07-.06 1.41-1.591 4.34-4.78 5.4-4.78 1.42 0 1.79-2.12 2.92-3.25 1.13-1.12 8.17-.33 9.67 1.17s2.58 4.78 3.66 4.78c1.09 0 2.34-3.03 4.42-3.03 1.52 0 4.61 1.07 6.14 1.65-.15 1.78.14 3.05.78 3.68 1.33 1.34-.5 11.5-2.5 11.5z" transform="translate(-638 -881) translate(639 881)"/>
                <path d="M255.133 232.77c-.98 7.61-4.03 19.95-5.5 23.17-1.4 3.07-2.12 5.68-2.28 7.65-1.53-.58-4.62-1.65-6.14-1.65-2.08 0-3.33 3.03-4.42 3.03-1.08 0-2.16-3.28-3.66-4.78-1.5-1.5-8.54-2.29-9.67-1.17-1.13 1.13-1.5 3.25-2.92 3.25-1.06 0-3.99 3.189-5.4 4.78-1.35-1.1-7.87-.94-8.93-.94-1.08 0-1.25 2.16-2.08 3-.84.83-2.09-.17-4.25.33-2.17.5-2.5 2-3.86 2-1.35 0-4.56-2-7.73-2-3.16 0-5.15-.33-5.15-2.33s-4.51-4.34-4.51-4.34c1.08-1.08.08-3.08 2-5 1.91-1.91 4.66.84 6.66.84s4.5-.84 4.5-3.17-5.83-5.67-1.33-5.67 4.25-2.41 5-3.16.75-4.59 0-5.34 0-3.33 0-5.33-4.47-5.97-5.88-4.55c-1.41 1.41-4.45 1.47-8.45 1.47-4 0-2.67 3.41-2.67 5.31 0 1.91-.44 3.21-1.33 2.31-.9-.9-7-4.71-7.84 0-.83 4.71 7.17 5.13 6.5 7.96-.66 2.83-3.33.83-5.66 3.17-2.34 2.33-.08 4.58-.83 5.33s-1.17 0-2.01.83c-.83.84.67 3.34 1.5 4.17.84.83.5 3.17 0 3.67-.08.08-.26.07-.51-.02-1.37-.4-4.94-2.65-7.32-2.65-2.83 0-6.83 2.83-6.83 0s2.83-4 2.83-5.83c0-1.84-3.92-5.59-5.5-7.17s-6-2.5-9.67-2.5c-3.66 0-8.19-6.96-8.19-6.96v-10.66c.98 0 1.24-1.821 2.48-1.821 1.26 0 1.32-2.5 1.69-2.87.38-.38 3.07-2.81 3.07-3.88 0-1.06 2.18-5.62 3.43-5.93 1.25-.32.75-6.07-.43-6.07-1.19 0-3.16-.09-3.69.44-.53.53-.41 1.41-1.25.56-.85-.84-1.75-3.37-2.75-3.75-1-.37-1.73 1-2.55 1-.83 0-2.94.69-3.26-.37-.32-1.07.84-2.6 1.31-3.07.47-.46.93-1.18.93-3 0-1.81-.34-9.63.13-10.11.47-.47 2-1.13 2-1.76 0-.63-1.25-4.94-5.06-6.56-3.81-1.63-4-1.13-3.5-2.25.5-1.13 4.22-.6 4.56-.94.34-.34 2.13-3 3.25-3s2.12 2 3.44 2c1.31 0 1.87-.44 1.87-1.38 0-.93-1.62-2.62-3.19-3.18-1.56-.56-3-2.25-1.56-2.88 1.44-.62 5.25-2.37 7.19-2 1.94.38 3.06 2.82 4.56 2.44 1.5-.38 1.69-2 .31-3.38-1.37-1.37-2.87-3.87-.74-6 2.12-2.12 4.15-1.15 4.68-1.68.53-.53 1.06-1.63 2.32-1.25 1.24.37 2 2.31 3.31 2.31s1.87-1 1.43-2.5c-.43-1.5 3.63-2.19 4.82-1.62 1.18.56 3 5.18 4.37 5.18 1.38 0 5.56-1.25 6.81-2.5 1.26-1.25-.62-5.62.69-7.68 1.31-2.07 7.07-6.19 7.57-7.32.5-1.12 1.56-3.87 3.62-4.5 2.06-.62 2.68 1.13 4.12.72.61.49 1.39.9 2.5 1.16 4.44 1.06 5.54-.53 6.26-1.25.71-.72-.07-6.38 3.93-7.07 4-.68 3.07 4.57 4.57 5.32 1.5.75 4.24-1 6.43.18 2.19 1.19 2 2 3.75 2s5-3.24 7.32-3.24c2.31 0 3 2.87 6.06 3.18 3.06.32 1.72-2.4 3.62-4.31 1.91-1.91 5.71-4.18 7.73-4.18.22 1.77.55 4.27 2.46 4.93 3.06 1.06-1.13 22.75 4.13 26.69 5.24 3.93-7.76 13.37-4.5 16.62 3.25 3.25 3.21 4.35 1.74 5.81-1.46 1.47 1.19 7.69-2.56 13.5-1.34 2.09-.82 4.51-1.06 6.88-.42 4.25-.59 8.34.81 10.06 2.19 2.69 2.38 7.82-1.31 9.69-1.83.93-.61 2.57 2.01 2.94 2.66.39 6.55-.75 10.61-4.81.85-.85 1.84 1.27 1.05 7.45zM239.893 289.7c-1.21 1.14-4.91.81-6.43 3.57-1.83 3.34-.08 8.92-3.83 12.67s-4.75-.33-6.92 6-1.42 4.5-2.33 4.5c-.92 0-1.92-3.58-3.67-3.58s-1.17 4.25-3.17 4.25-1.21-4.3-.33-5.17c.88-.87-1.25-3.25-2.08-2.42-.84.84-2 3.34-3 4.34s-.92-2.67-2.09-2.67c-1.16 0-.83 1.67-4.33 1.25-1.52-.18-3.28-.21-4.87-.26 0 0-3.26-2.62-2.5-4.86.74-2.26 4.62-1.38 6.74-2 2.13-.63 1.88-2.63 3-2.63 1.13 0 1.63-1.37 4.13-2.5s4.87.13 6-2.37-1.73-3.38-.93-5.38c.8-2 3.06 0 4.43 0 1.37 0-.06-3.31 1.25-4.62 1.31-1.32 4 1 5.62 1 1.63 0 4.8-2.3 4.8-2.3.71.71 1.25 1.92 3.41 1.92 2.17 0 7.1 1.26 7.1 1.26z" transform="translate(-638 -881) translate(639 881)"/>
                <path d="M229.383 286.52s-3.17 2.3-4.8 2.3c-1.62 0-4.31-2.321-5.62-1-1.31 1.31.12 4.62-1.25 4.62s-3.63-2-4.43 0c-.8 2 2.06 2.88.93 5.38s-3.5 1.24-6 2.37c-2.5 1.13-3 2.5-4.13 2.5-1.12 0-.87 2-3 2.63-2.12.62-6-.26-6.74 2-.76 2.24 2.5 4.86 2.5 4.86-2.07-.08-3.85-.21-4.46-.82-1.09-1.09-3.09-3.5-5.09-3.5s-1.29-4.96-2.16-5.84c-.88-.87-2.17-.83-2.17 1 0 1.84.71 4.88 1.67 5.84.96.95-.75 3.75-1.84 3.75-1.08 0-4.91-1.17-6.66-1.17s-3.67 3.67-5.67 3.67-2.17.83-2.17 2c0 1.16 2.29 2.04 5.59-1.25 3.29-3.29 3.08 3.75 2.33 4.5s-5.38 2.73-3.83 6.5c.58 1.41 2.16 3.83 3.58 3.83s2-2.33 2.75-2.33 6.69.83 7.31.2c.63-.62-2.06-2.93-1.5-4.061.56-1.12 3.75 1.88 5.69-3.5 1.94-5.37 1.75-4.25 2.19-3.81.44.44-.19 6.69.87 7.06 1.07.38-.09 4.91.88 5.88.97.97 3.69-.19 1.25 3.06s-2.07 4.19-1.38 4.87c.69.69-.56 1.88-1.68 1.44-1.13-.44-1.5-2-2.82-1.25-1.31.75-1.25 4.07-.62 4.69.62.62.25 1.88-.94 1.88s0 3.12-2.31 3.12-2.72-2.34-1.75-3.31c.97-.97-.82-3.88-1.56-3.88-.76 0-.25 1.63-.82 2.19-.56.56-2.5-.19-1.06-2.12 1.44-1.94.44-3 1.38-3.38.93-.38 2.87-1.38 2.87-2.88s-2.06-1.93-2.5-.68c-.44 1.25-1.5 1.62-2.94 1.62-1.43 0-.93 1.56-1.56.94-.63-.62-.75-3.25-1.63-3.25-.87 0-4.03.16-4.43.56-.41.41-.1 2.16.37 2.63.47.47.97 2.4.44 2.94-.53.53-6.19.68-7.44.24-1.25-.43.88-3.06 1.32-3.06.43 0-2.63-1.87-1.5-2.25 1.12-.37 4.15.16 4.74-.43.6-.6-1-2.5-1.68-2.5-.69 0-1 1.31-1.82-.13-.81-1.44-.4-2.59.19-3.19.6-.59-.25-3.5-.89-4.14-.65-.65-1.63 2.91-2.25 4.62-.63 1.71-1.88-1.58-4.17-2.21-2.29-.62-2.94 2.52-3.38 2.96-.43.44-4.74-.16-5.2.29-.46.46-.3.96-.67.96-.37 0-6.83-6.5-6.42-8.17.42-1.66 1.96-4 .34-5-1.63-1-4.09.67-4.46 1.05-.38.37.96 2.04-.71 2.83s-3.5-3.83-4.21-3.83 1.85 4.6-2.91 6.91c-1.5.73-4.31.49-6.89-.14 0-10.07-10.74-20.32-12.24-21.81-.52-.52-.91-1.66-1.32-3.04 0 0-.31-5.72 1.07-8.34 1.38-2.62 3.38-3.88 3.38-6.38s-.1-10.74-2.24-11.87c-2.14-1.13-2.08-6.06-.52-7.63 1.57-1.56 2-7.24 4.5-11.12 2.5-3.88 14.03-12.55 16.52-13.46 0 0 4.53 6.96 8.19 6.96 3.67 0 8.09.92 9.67 2.5s5.5 5.33 5.5 7.17c0 1.83-2.83 3-2.83 5.83s4 0 6.83 0c2.38 0 5.95 2.25 7.32 2.65.25.09.43.1.51.02.5-.5.84-2.84 0-3.67-.83-.83-2.33-3.33-1.5-4.17.84-.83 1.26-.08 2.01-.83.75-.75-1.51-3 .83-5.33 2.33-2.34 5-.34 5.66-3.17.67-2.83-7.33-3.25-6.5-7.96.84-4.71 6.94-.9 7.84 0 .89.9 1.33-.4 1.33-2.31 0-1.9-1.33-5.31 2.67-5.31s7.04-.06 8.45-1.47c1.41-1.42 5.88 2.55 5.88 4.55s-.75 4.58 0 5.33.75 4.59 0 5.34-.5 3.16-5 3.16 1.33 3.34 1.33 5.67-2.5 3.17-4.5 3.17-4.75-2.75-6.66-.84c-1.92 1.92-.92 3.92-2 5 0 0 4.51 2.34 4.51 4.34s1.99 2.33 5.15 2.33c3.17 0 6.38 2 7.73 2 1.36 0 1.69-1.5 3.86-2 2.16-.5 3.41.5 4.25-.33.83-.84 1-3 2.08-3 1.06 0 7.58-.16 8.93.94.03.02.05.04.07.06 0 0 .08 1.66-.75 2.5-.83.83-1.67 3.58-.83 4.41.83.84 3.08 1.75 4.91 2.67 1.84.92 2.09 2.42 3.75 4.08 1.67 1.67 5.59.59 7.09 2.09.83.83-.71 2.96 0 3.66zM85.383 94.36c0 1-1.09 3.08-3.5 3.08-2.42 0-2.75 5.17-4.09 5.75-1.33.58-2.69 2.08-4.43.33-.82-.82-9.11 2.63-15.07-3.33-1.08-1.08-1.93-9.49-.93-10.49 2.7 1.93 4.97 3.52 5.48 3.68 1.37.44 1.74-.13 1.74-.13s-1.33-.97-3.23-2.35c0 0 2.07-3.67 3.11-4.71s2.92-1.67 4.08-1.67c1.17 0 1.92-2.41 3.17-2.75 1.25-.33 5.8-.76 6.56 0 .76.77 2.11 1.92 2.11 2.92s-2.11 4.47-2.11 6.74c0 2.26 1.31 2.38 2.11 1.59.79-.79 2.41-2.18 3-1.59.59.59 2 1.93 2 2.93zM66.713 308.32c-.63.62-4.37 2.87-4.37 4 0 1.12-3.13.12-4.13-.88s-10.69.81-11.63-.12c-.93-.94-5.37-4.5-5.37-9.5s3.37-5.88 5-5.88 4.08 2.62 5.5 2.62c1.5 0 2.13-1.74 5.13-1.74s3.99 2.25 5 3.24c1 1 3.74.51 4.87 1.63 1.13 1.12.63 6 0 6.63zM106.583 201.75c-4.06 4.63-2.87 9.69-1.43 9.69 0 0-2.44 1.75-4.07 1.75-1.62 0-2.53-1.09-3.57-2.13-1.04-1.03-2.3-3.24-3.3-2.24-1 .99-.75 2.62-.75 4.74 0 2.13-2.62 2.63-3.38 1.88-.75-.75 2-6.25-.62-7.12-2.62-.88-3.25-4-3.25-6s3-2.88 4-6.63 7.3-5.74 7.3-5.74c1.99 1.84 4.67 4.03 6.89 4.8 3.94 1.38 6.25 2.38 2.18 7z" transform="translate(-638 -881) translate(639 881)"/>
                <path d="M195.463 246.61c-.75.75-.5 3.16-5 3.16s1.33 3.34 1.33 5.67-2.5 3.17-4.5 3.17-4.75-2.75-6.66-.84c-1.92 1.92-.92 3.92-2 5-1.09 1.09-1.34-.83-3.34 1.17-2 2-2.33 3.17-4.33 3.17-.84 0-1.83-.7-2.68-1.52.25.09.43.1.51.02.5-.5.84-2.84 0-3.67-.83-.83-2.33-3.33-1.5-4.17.84-.83 1.26-.08 2.01-.83.75-.75-1.51-3 .83-5.33 2.33-2.34 5-.34 5.66-3.17.67-2.83-7.33-3.25-6.5-7.96.84-4.71 6.94-.9 7.84 0 .89.9 1.33-.4 1.33-2.31 0-1.9-1.33-5.31 2.67-5.31s7.04-.06 8.45-1.47c1.41-1.42 5.88 2.55 5.88 4.55s-.75 4.58 0 5.33.75 4.59 0 5.34zM262.713 97.065s-.187 2.438 1.125 3.75c1.313 1.312 2.063 3.937 2.875 3.125.812-.813 1.75-1.625 2.75-1.625s2.25-.375 2.25-1 .063-6.062-.75-6.875c-.813-.813-1.375 2-2.375 2s-3-.25-4.625-.25-1.25.875-1.25.875zM295.588 106.815s-1.076-1.646 0-2.722c1.076-1.077 3.125.25 3.125 1.36 0 1.112-1.802-.758-1.802-.2 0 .562.302 1.562-1.323 1.562zM9.13 467.44s-2.29-1.93-3.86-3.5c-1.57-1.57-4.473-1.667-4.473-4s-.668-3.667 0-4.333c.665-.667-.668-3 .832-4.5s2.917-1.25 4.5-2.834c1.584-1.583-.166-3.166 1.834-3.166s2.833-2.167 7.333-2.167 3-2.667 5.666-2.667c2.668 0 3.835-2.333 5.668-2.333 1.832 0 5.167-.833 10-.833 4.832 0 10.332-2.167 13.832-.834 3.5 1.334 3.5 2.667 5 2.667s.667 4.667 2.667 4.667c2 0-1.166 3-1.166 4.833 0 1.833-2.184 1.717-3.666 3.2-1.483 1.484.333 3.467-.667 4.467-1 1-4.25 1.25-5.334 2.333-1.084 1.083-3.584.083-4.666 1.167-1.084 1.083-4.334 2-6.5 2-2.168 0-3.5.333-4.834 1.666-1.334 1.334-4.584-1.083-5.666 0-1.083 1.084.332 1.667-1.833 1.667-2.168 0-2.168-2.167-5.335-2.167-3.165 0-4.25.25-5.165 1.167-.918.917-2.085.083-2.835.833s1 2.667-1.332 2.667zM61.547 443.107s-.042-.46-.75-1.167c-.708-.708-1.75-2.083-.5-2.083s3.938 1.02 3.333 1.625c-.605.604-1.916-.375-1.916 0s1.166 1.04-.167 1.625zM7.796 472.857s-.583-1.084.333-1.084c.918 0 2.335 1.167 1.668 1.834-.668.666-1.617.416-2.184.416-.567 0-.317-1.166.183-1.166zM5.046 468.44s.901-.583 2.242-.583 1.716 2.208 1.341 2.583c-.374.375-3.582-.667-3.582-2z" transform="translate(-638 -881) translate(639 881)"/>
            </g>
        </g>
    </g>
</svg>
