<svg xmlns="http://www.w3.org/2000/svg" xmlns:xlink="http://www.w3.org/1999/xlink" width="800" height="117" viewBox="0 0 800 117">
    <defs>
        <path id="x8hfw45kya" d="M4 .688h792c2.21 0 4 1.79 4 4v36H0v-36c0-2.21 1.79-4 4-4z"/>
    </defs>
    <g fill="none" fill-rule="evenodd">
        <g>
            <g transform="translate(-680 -904) translate(680 904)">
                <rect width="800" height="116" y="1" fill="#F2F5F7" rx="4"/>
                <g>
                    <mask id="no72yn3jyb" fill="#fff">
                        <use xlink:href="#x8hfw45kya"/>
                    </mask>
                    <use fill="#A3B4C4" xlink:href="#x8hfw45kya"/>
                    <path fill="#B2C1CF" d="M402.5 46C636.393 46 826 20.332 826-17.5S636.393-86 402.5-86-21-55.332-21-17.5 168.607 46 402.5 46z" mask="url(#no72yn3jyb)"/>
                    <path fill="#92ACC3" d="M100 40.688c342.521.916 568.611-12.417 678.27-40 109.657-27.584 153.398-27.584 131.22 0v53l-809.49 5v-18z" mask="url(#no72yn3jyb)"/>
                    <path fill="#89A0B4" d="M140 40.688c342.521.916 568.611-12.417 678.27-40 109.657-27.584 153.398-27.584 131.22 0v53l-809.49 5v-18z" mask="url(#no72yn3jyb)"/>
                </g>
                <text fill="#FFF" font-family="NotoSansCJKkr-Black, Noto Sans CJK KR" font-size="18" font-weight="700">
                    <tspan x="295" y="28">To motto of a company</tspan>
                </text>
                <text fill="#363636" font-family="NotoSansCJKkr-Medium, Noto Sans CJK KR" font-size="20" font-weight="400">
                    <tspan x="203" y="88">사장은 없다. 알아서 하자. 단, 상대를 인정하면서</tspan>
                </text>
            </g>
        </g>
    </g>
</svg>
