<svg xmlns="http://www.w3.org/2000/svg" xmlns:xlink="http://www.w3.org/1999/xlink" width="48" height="48" viewBox="0 0 48 48">
    <defs>
        <path id="udbye6z7ka" d="M0 0L30 0 30 26.245 0 26.245z"/>
    </defs>
    <g fill="none" fill-rule="evenodd">
        <g>
            <g transform="translate(-680 -1521) translate(680 1521)">
                <circle cx="24" cy="24" r="24" fill="#D4E1EF"/>
                <g transform="translate(9 11)">
                    <mask id="9k8auag5xb" fill="#fff">
                        <use xlink:href="#udbye6z7ka"/>
                    </mask>
                    <path fill="#666" d="M27.739 9.687l-2.104-7.014C25.155 1.073 23.71 0 22.042 0H7.958c-1.67 0-3.113 1.074-3.593 2.673L2.261 9.687C.933 10.264 0 11.586 0 13.125v7.5C0 21.66.84 22.5 1.875 22.5v1.875c0 1.035.84 1.875 1.875 1.875h1.875c1.035 0 1.875-.84 1.875-1.875V22.5h15v1.875c0 1.035.84 1.875 1.875 1.875h1.875c1.035 0 1.875-.84 1.875-1.875V22.5c1.035 0 1.875-.84 1.875-1.875v-7.5c0-1.539-.933-2.861-2.261-3.438zM7.958 3.75h14.084l1.688 5.625H6.27L7.958 3.75zM7.5 17.813c-1.036 0-1.875-.84-1.875-1.875 0-1.036.84-1.876 1.875-1.876 1.035 0 1.875.84 1.875 1.876 0 1.035-.84 1.874-1.875 1.874zm15 0c-1.036 0-1.875-.84-1.875-1.875 0-1.036.84-1.876 1.875-1.876 1.035 0 1.875.84 1.875 1.876 0 1.035-.84 1.874-1.875 1.874z" mask="url(#9k8auag5xb)"/>
                </g>
            </g>
        </g>
    </g>
</svg>
