<svg xmlns="http://www.w3.org/2000/svg" xmlns:xlink="http://www.w3.org/1999/xlink" width="40" height="41" viewBox="0 0 40 41">
    <defs>
        <path id="c2s4bjaq1a" d="M0.075 0.074L19.583 0.074 19.583 34.577 0.075 34.577z"/>
    </defs>
    <g fill="none" fill-rule="evenodd">
        <g>
            <g>
                <path fill="#2D4C6A" fill-opacity=".4" d="M20 5.762c-.69 0-1.25-.56-1.25-1.25V1.25C18.75.56 19.31 0 20 0s1.25.56 1.25 1.25v3.262c0 .69-.56 1.25-1.25 1.25zM30.952 10.298c-.32 0-.64-.121-.884-.366-.488-.489-.488-1.28 0-1.769l2.307-2.306c.488-.489 1.28-.489 1.768 0 .489.488.489 1.28 0 1.768l-2.306 2.307c-.245.243-.565.366-.885.366zM38.75 21.25h-3.262c-.69 0-1.25-.56-1.25-1.25s.56-1.25 1.25-1.25h3.262c.69 0 1.25.56 1.25 1.25s-.56 1.25-1.25 1.25zM33.258 34.508c-.32 0-.64-.121-.883-.366l-2.307-2.307c-.488-.488-.488-1.28 0-1.768.489-.489 1.28-.489 1.769 0l2.306 2.306c.489.489.489 1.28 0 1.769-.244.245-.565.366-.885.366zM6.742 34.508c-.32 0-.64-.121-.884-.366-.488-.489-.488-1.28 0-1.769l2.307-2.306c.488-.489 1.28-.489 1.768 0 .489.488.489 1.28 0 1.768l-2.306 2.307c-.245.245-.565.366-.885.366zM4.512 21.25H1.25C.56 21.25 0 20.69 0 20s.56-1.25 1.25-1.25h3.262c.69 0 1.25.56 1.25 1.25s-.56 1.25-1.25 1.25z" transform="translate(-680 -827) translate(680 827)"/>
                <g transform="translate(-680 -827) translate(680 827) translate(5.417 5.417)">
                    <mask id="1eao0mo8yb" fill="#fff">
                        <use xlink:href="#c2s4bjaq1a"/>
                    </mask>
                    <path fill="#2D4C6A" fill-opacity=".4" d="M3.632 4.882c-.32 0-.64-.122-.884-.367L.441 2.208C-.047 1.72-.047.928.441.44c.49-.488 1.28-.488 1.769 0l2.307 2.307c.488.488.488 1.28 0 1.768-.247.243-.565.367-.885.367z" mask="url(#1eao0mo8yb)"/>
                    <path fill="#2D4C6A" d="M19.583 29.583v2.084c0 1.6-1.316 2.916-2.916 2.916H12.5c-1.4 0-2.917-1.066-2.917-3.4v-1.6h10z" mask="url(#1eao0mo8yb)"/>
                </g>
                <path fill="#2D4C6A" d="M27.35 10.933C24.617 8.717 21.017 7.85 17.5 8.6c-4.416.917-8 4.517-8.917 8.933-.933 4.534.767 9.034 4.4 11.784.983.733 1.667 1.866 1.9 3.183v.017c.034-.017.084-.017.117-.017h10c.033 0 .05 0 .083.017V32.5c.234-1.267.983-2.433 2.134-3.333 2.816-2.234 4.45-5.567 4.45-9.167 0-3.534-1.567-6.834-4.317-9.067zm-1.1 9.9c-.683 0-1.25-.566-1.25-1.25C25 17.05 22.95 15 20.417 15c-.684 0-1.25-.567-1.25-1.25s.566-1.25 1.25-1.25c3.9 0 7.083 3.183 7.083 7.083 0 .684-.567 1.25-1.25 1.25z" transform="translate(-680 -827) translate(680 827)"/>
                <path fill="#2D4C6A" d="M14.883 32.5H15c-.033 0-.083 0-.117.017V32.5zM25.083 32.5v.017c-.033-.017-.05-.017-.083-.017h.083z" transform="translate(-680 -827) translate(680 827)"/>
            </g>
        </g>
    </g>
</svg>
