<svg xmlns="http://www.w3.org/2000/svg" xmlns:xlink="http://www.w3.org/1999/xlink" width="446" height="90" viewBox="0 0 446 90">
    <defs>
        <path id="gjrcd8uzva" d="M0.407 0.064L27.794 0.064 27.794 27.366 0.407 27.366z"/>
        <path id="5f76l2h73c" d="M0.572 0.321L39.216 0.321 39.216 38.846 0.572 38.846z"/>
        <path id="ifrkwi6aie" d="M0.078 0.08L16.238 0.08 16.238 16.194 0.078 16.194z"/>
        <path id="tuxhxb1dhg" d="M0 87.961L444.318 87.961 444.318 0.08 0 0.08z"/>
    </defs>
    <g fill="none" fill-rule="evenodd">
        <g>
            <g>
                <path fill="#DBDCDC" d="M395.556 16.579L397.456 14.063 408.27 24.2 406.375 26.719zM385.667 63.447L405.166 50.625 406.857 53.266 387.358 66.094z" transform="translate(-858 -964) translate(858 964)"/>
                <g transform="translate(-858 -964) translate(858 964)">
                    <g transform="translate(357.419 60.595)">
                        <mask id="3u1lr0ny2b" fill="#fff">
                            <use xlink:href="#gjrcd8uzva"/>
                        </mask>
                        <path fill="#F19963" d="M6.818 25.285C.438 21.282-1.515 12.863 2.486 6.467c4-6.382 12.475-8.329 18.864-4.312 6.44 4.003 8.373 12.403 4.338 18.802-4.014 6.384-12.458 8.33-18.87 4.328" mask="url(#3u1lr0ny2b)"/>
                    </g>
                    <g transform="translate(405.102 20.18)">
                        <mask id="x9gcbdfo5d" fill="#fff">
                            <use xlink:href="#5f76l2h73c"/>
                        </mask>
                        <path fill="#88AAD9" d="M.572 19.577C.572 8.94 9.231.32 19.897.32c10.669 0 19.32 8.62 19.32 19.256 0 10.643-8.651 19.269-19.32 19.269C9.231 38.846.572 30.22.572 19.576" mask="url(#x9gcbdfo5d)"/>
                    </g>
                    <g transform="translate(378.348)">
                        <mask id="25dve41s2f" fill="#fff">
                            <use xlink:href="#ifrkwi6aie"/>
                        </mask>
                        <path fill="#A6D297" d="M.078 8.137C.078 3.687 3.698.08 8.165.08c4.454 0 8.073 3.608 8.073 8.057 0 4.455-3.62 8.057-8.073 8.057-4.468 0-8.087-3.602-8.087-8.057" mask="url(#25dve41s2f)"/>
                    </g>
                    <mask id="p1txwy6e1h" fill="#fff">
                        <use xlink:href="#tuxhxb1dhg"/>
                    </mask>
                    <path fill="#888889" d="M96.563 42.266h5.928V2.052h-5.928v40.214zm-24.087-2.402h5.991v11.822h25.32v5.113h-31.31V39.864zm17.786-11.457l-3.395 4.127c-1.196-.573-2.4-1.314-3.613-2.215-1.215-.903-2.338-1.912-3.366-3.016-1.029-1.028-1.956-2.115-2.78-3.266-.823-1.148-1.46-2.28-1.913-3.384-.413 1.105-1.05 2.287-1.915 3.54-.865 1.251-1.853 2.43-2.964 3.54-1.235 1.273-2.543 2.463-3.923 3.571-1.378 1.107-2.707 2.012-3.983 2.71l-3.827-4.064c2.223-1.437 4.219-2.977 5.989-4.62 1.77-1.641 3.252-3.488 4.446-5.54.947-1.643 1.678-3.47 2.194-5.482.513-2.01.772-4.247.772-6.71V3.284h6.422v4.744c0 2.463.257 4.699.773 6.71.513 2.012 1.264 3.837 2.254 5.481.986 1.685 2.221 3.194 3.703 4.525 1.484 1.335 3.192 2.56 5.126 3.663zM148.809 38.938h-11.611v-4.677h11.61V2.118h5.929v41.748h-5.928v-4.928zm-24.952 3.757h5.991v8.992h25.26v5.111h-31.25V42.695zm3.15-21.736c1.894 0 3.55-.678 4.972-2.033 1.421-1.354 2.131-3.016 2.131-4.99 0-1.925-.71-3.58-2.13-4.955-1.422-1.374-3.079-2.062-4.972-2.062-1.894 0-3.55.688-4.97 2.062-1.423 1.376-2.133 3.03-2.133 4.955 0 1.974.71 3.636 2.133 4.99 1.42 1.355 3.076 2.033 4.97 2.033zm0-18.78c1.77 0 3.449.306 5.035.922 1.584.616 2.974 1.456 4.168 2.524 1.152 1.069 2.078 2.322 2.78 3.757.697 1.438 1.05 2.977 1.05 4.62 0 1.642-.353 3.18-1.05 4.615-.702 1.441-1.628 2.692-2.78 3.757-1.194 1.068-2.584 1.908-4.168 2.526-1.586.616-3.264.922-5.034.922-1.812 0-3.51-.306-5.095-.922-1.586-.618-2.955-1.458-4.107-2.526-1.194-1.065-2.12-2.316-2.778-3.757-.66-1.434-.99-2.973-.99-4.615 0-1.643.33-3.182.99-4.62.659-1.435 1.584-2.688 2.778-3.757 1.152-1.068 2.52-1.908 4.107-2.524 1.586-.616 3.283-.923 5.095-.923zm-3.21 30.047l-14.082.063v-4.74h10.253c2.058 0 4.31-.044 6.763-.124 2.447-.084 4.846-.187 7.193-.31 2.388-.122 4.642-.264 6.763-.43 2.12-.165 3.92-.349 5.405-.552v4.617c-1.731.245-4.068.49-7.01.739-2.945.246-6.001.43-9.173.553v7.76h-6.112v-7.576zM200.932 49.16h5.991V2.117h-5.99V49.16zm-13.34-32.76c0-2.176-.72-4.05-2.16-5.632-1.443-1.581-3.153-2.373-5.127-2.373-2.017 0-3.728.792-5.126 2.373-1.402 1.582-2.1 3.456-2.1 5.632 0 2.218.698 4.097 2.1 5.637 1.398 1.538 3.11 2.307 5.126 2.307 1.974 0 3.684-.769 5.127-2.307 1.44-1.54 2.16-3.419 2.16-5.637zm-20.317 0c0-1.804.34-3.497 1.017-5.078.68-1.582 1.596-2.966 2.75-4.158 1.193-1.19 2.584-2.135 4.166-2.832 1.586-.698 3.286-1.048 5.097-1.048 1.77 0 3.456.35 5.066 1.048 1.603.697 2.984 1.642 4.136 2.832 1.194 1.192 2.141 2.576 2.84 4.158.703 1.58 1.052 3.274 1.052 5.078 0 1.85-.35 3.563-1.051 5.145-.7 1.58-1.647 2.965-2.84 4.155-1.153 1.15-2.534 2.062-4.137 2.74-1.61.677-3.295 1.015-5.066 1.015-1.811 0-3.51-.338-5.097-1.014-1.582-.679-2.973-1.591-4.165-2.74-1.155-1.191-2.07-2.575-2.75-4.156-.679-1.582-1.018-3.294-1.018-5.145zm31 17.12v4.806c-1.234.205-2.798.389-4.69.55-1.896.167-3.935.308-6.116.435-2.222.16-4.478.287-6.762.367-2.286.082-4.414.123-6.394.123l-10.56.063v-4.928h8.401c2.057 0 4.313-.039 6.761-.123 2.45-.08 4.846-.184 7.195-.307 2.386-.123 4.642-.266 6.763-.43 2.121-.164 3.92-.35 5.403-.555zM235.883 39.924h7.599v-7.82h-7.599v7.82zm-5.618-7.82h-6.485V15.602h24.457V9.443H223.78V4.515h30.817v15.827H230.08v6.773h25.69v4.989H249.1v7.82h15.44v4.989h-50.577v-4.989h16.302v-7.82zM306.657 17.08V2.177h5.807V49.59h-5.807V22.745h-6.296v25.43h-5.562V3.037h5.562V17.08h6.296zm-29.766-6.65h-7.78V5.195h21.181v5.235h-7.533v2.463c0 2.215.164 4.257.496 6.126.327 1.869.884 3.602 1.664 5.203.743 1.6 1.729 3.151 2.964 4.649 1.237 1.499 2.803 3.049 4.695 4.65l-3.029 3.571c-.947-.575-1.891-1.325-2.84-2.246-.945-.925-1.85-1.921-2.717-2.987-.863-.987-1.645-2.011-2.345-3.078-.702-1.068-1.235-2.053-1.607-2.96-.37.948-.894 1.953-1.573 3.02-.682 1.067-1.452 2.135-2.319 3.202-.903 1.108-1.878 2.176-2.93 3.204-1.051 1.024-2.069 1.908-3.057 2.646l-3.646-3.51c2.102-1.722 3.83-3.45 5.19-5.172 1.356-1.724 2.448-3.511 3.273-5.358.659-1.601 1.143-3.284 1.45-5.051.307-1.763.463-3.694.463-5.786V10.43zM361.559 17.448h7.843v5.172h-7.843v19.645h-5.927V2.053h5.927v15.395zm-29.83 22.415h5.992v11.823h24.702v5.112H331.73V39.863zm19.765-14.041v4.805c-1.111.246-2.533.46-4.262.647-1.729.183-3.542.338-5.434.46-1.852.124-3.666.218-5.438.279-1.77.062-3.209.091-4.322.091l-10.063.061V4.515h23.095v5.173h-17.108v17.489l5.066-.063c1.235 0 2.632-.027 4.199-.09 1.566-.06 3.148-.13 4.757-.215 1.645-.123 3.28-.256 4.91-.403 1.624-.142 3.157-.336 4.6-.584zM16.173 23.339h3.144V2.499h-3.144v20.84zM9.523 6.542c-.582-.66-1.266-.99-2.054-.99-.808 0-1.49.33-2.055.99-.564.661-.846 1.447-.846 2.36 0 .928.282 1.712.846 2.353.565.645 1.247.966 2.055.966.788 0 1.472-.32 2.054-.966.583-.641.875-1.425.875-2.353 0-.913-.292-1.699-.875-2.36zm-7.588.08c.304-.713.725-1.338 1.262-1.874s1.173-.96 1.908-1.273c.735-.312 1.521-.47 2.364-.47.823 0 1.602.158 2.337.47.735.313 1.37.737 1.91 1.273.552.536.987 1.161 1.3 1.874.314.716.47 1.474.47 2.28 0 .82-.156 1.589-.47 2.3-.313.718-.748 1.341-1.3 1.879-.54.516-1.175.928-1.91 1.227-.735.305-1.514.46-2.337.46-.843 0-1.63-.155-2.364-.46-.735-.299-1.37-.711-1.908-1.227-.537-.538-.958-1.161-1.262-1.879-.306-.711-.457-1.48-.457-2.3 0-.806.151-1.564.457-2.28zm13.38 11.975c-.538.088-1.232.17-2.085.242-.85.07-1.766.145-2.752.211-1.004.057-2.015.106-3.037.149-1.02.045-1.96.068-2.82.068L0 19.293v-2.49h3.682c.893 0 1.887-.018 2.98-.055 1.095-.035 2.167-.08 3.226-.133 1.074-.072 2.086-.145 3.035-.215.948-.069 1.746-.15 2.391-.239v2.436zM33.37 18.947h2.79v-3.028h-2.79v3.028zm-5.778-3.028V8.364h10.639V6.06H27.592V3.542h13.942v7.26H30.87v2.572h11.178v2.545h-2.904v3.028h6.716v2.543H23.32v-2.543h7.065v-3.028h-2.793zM16.173 32.606h3.117v13.29h-3.117v-5.438h-3.815v-2.6h3.815v-5.252zM8.947 54.279h6.96v-2.467h-6.96v2.467zm0-7.42v2.488h6.96V46.86h3.14v9.94H5.803v-9.94h3.144zm-5.16-4.447h4.57V39.25h-4.57v3.162zm0-8.946v3.293h4.57v-3.293h3.115V44.93H.672V33.466h3.115zM40.352 50.26h3.117V32.607h-3.117v17.655zm-7.332-1.205v5.143h11.013v2.601H29.876v-7.744h3.144zm-.364-12.016c-.6-.686-1.322-1.03-2.163-1.03-.86 0-1.584.344-2.176 1.03-.59.69-.886 1.525-.886 2.506 0 1.001.296 1.84.886 2.518.592.68 1.316 1.02 2.176 1.02.841 0 1.563-.34 2.163-1.02.6-.678.901-1.517.901-2.518 0-.981-.302-1.816-.901-2.506zm-7.912.082c.323-.758.76-1.415 1.317-1.968.574-.573 1.237-1.024 1.988-1.354.75-.33 1.566-.497 2.444-.497.86 0 1.667.166 2.42.497.752.33 1.415.781 1.985 1.354.557.553 1 1.21 1.33 1.968.333.759.5 1.568.5 2.424 0 .876-.167 1.693-.5 2.451-.33.759-.773 1.418-1.33 1.97-.57.572-1.233 1.017-1.986 1.342-.752.318-1.558.479-2.419.479-.878 0-1.693-.16-2.444-.48-.751-.324-1.414-.77-1.988-1.34-.557-.553-.994-1.212-1.317-1.97-.322-.759-.485-1.576-.485-2.452 0-.856.163-1.665.485-2.424z" mask="url(#p1txwy6e1h)"/>
                    <path fill="#B4B5B5" d="M1.363 81.667c.855.546 2.084.962 3.4.962 1.952 0 3.095-1.026 3.095-2.518 0-1.354-.79-2.161-2.788-2.906-2.413-.876-3.905-2.144-3.905-4.2 0-2.298 1.91-4.002 4.783-4.002 1.492 0 2.61.348 3.247.721l-.528 1.552c-.46-.285-1.448-.7-2.785-.7-2.02 0-2.788 1.203-2.788 2.21 0 1.377.9 2.056 2.943 2.843 2.499.96 3.75 2.166 3.75 4.33 0 2.277-1.669 4.265-5.156 4.265-1.427 0-2.984-.436-3.774-.962l.506-1.595zM14.317 69.243L14.317 75.41 21.468 75.41 21.468 69.243 23.399 69.243 23.399 83.985 21.468 83.985 21.468 77.073 14.317 77.073 14.317 83.985 12.386 83.985 12.386 69.243zM26.675 83.985L28.605 83.985 28.605 69.243 26.675 69.243zM31.931 83.985V69.243h2.106l4.718 7.457c1.075 1.73 1.953 3.282 2.631 4.793l.067-.024c-.175-1.968-.218-3.763-.218-6.06v-6.166h1.798v14.742h-1.931l-4.695-7.48c-1.031-1.64-2.017-3.324-2.743-4.923l-.064.024c.107 1.859.131 3.63.131 6.08v6.299h-1.8zM48.765 83.985l-3.752-14.742h2.019l1.754 7.457c.44 1.837.835 3.677 1.098 5.096h.043c.241-1.464.702-3.214 1.206-5.118l1.974-7.435h1.996l1.8 7.48c.417 1.75.813 3.5 1.03 5.053h.045c.306-1.618.724-3.258 1.184-5.098l1.953-7.435h1.952l-4.189 14.742h-1.997l-1.865-7.68c-.46-1.88-.766-3.323-.964-4.81h-.045c-.241 1.464-.592 2.912-1.141 4.81l-2.106 7.68h-1.995zM66.03 76.678c0 3.172 1.712 5.993 4.739 5.993s4.738-2.776 4.738-6.122c0-2.956-1.535-6.019-4.717-6.019-3.18 0-4.76 2.934-4.76 6.148m11.494-.215c0 5.049-3.091 7.76-6.865 7.76-3.926 0-6.647-3.038-6.647-7.5 0-4.682 2.895-7.743 6.845-7.743 4.058 0 6.667 3.085 6.667 7.483M79.988 83.985V69.243h2.105l4.719 7.457c1.074 1.73 1.952 3.282 2.63 4.793l.067-.024c-.174-1.968-.217-3.763-.217-6.06v-6.166h1.797v14.742h-1.93l-4.696-7.48c-1.031-1.64-2.017-3.324-2.742-4.923l-.065.024c.108 1.859.131 3.63.131 6.08v6.299h-1.8zM112.202 77.508c-.11-2.056-.24-4.549-.24-6.362h-.046c-.525 1.704-1.117 3.563-1.864 5.6l-2.61 7.152h-1.448l-2.413-7.021c-.7-2.1-1.27-3.98-1.69-5.731h-.041c-.045 1.837-.157 4.286-.286 6.518l-.395 6.32h-1.823l1.031-14.742h2.435l2.523 7.132c.616 1.814 1.1 3.435 1.492 4.963h.045c.394-1.487.92-3.104 1.578-4.963l2.633-7.132h2.435l.921 14.742h-1.886l-.35-6.476zM124.997 77.073L119.271 77.073 119.271 82.388 125.676 82.388 125.676 83.985 117.338 83.985 117.338 69.242 125.348 69.242 125.348 70.839 119.271 70.839 119.271 75.497 124.997 75.497zM130.052 82.498c.485.064 1.184.088 1.93.088 4.1 0 6.296-2.277 6.296-6.257.023-3.48-1.953-5.686-5.989-5.686-.988 0-1.735.086-2.237.195v11.66zm-1.91-13.036c1.165-.197 2.545-.33 4.06-.33 2.743 0 4.696.657 5.988 1.837 1.339 1.206 2.105 2.909 2.105 5.295 0 2.407-.766 4.375-2.127 5.73-1.403 1.38-3.687 2.122-6.56 2.122-1.381 0-2.499-.066-3.465-.177V69.462zM142.714 83.985L144.647 83.985 144.647 69.243 142.714 69.243zM158.284 83.525c-.68.35-2.103.698-3.903.698-4.172 0-7.285-2.62-7.285-7.477 0-4.64 3.137-7.745 7.722-7.745 1.823 0 3.005.393 3.511.657l-.482 1.552c-.704-.35-1.735-.614-2.964-.614-3.466 0-5.77 2.213-5.77 6.082 0 3.63 2.086 5.928 5.662 5.928 1.184 0 2.368-.242 3.137-.612l.372 1.53zM168.034 77.861l-1.472-4.245c-.327-.962-.547-1.836-.765-2.69h-.047c-.22.854-.437 1.771-.745 2.666l-1.448 4.27h4.477zm-4.87 1.488l-1.538 4.636h-1.972l5.044-14.742h2.281l5.046 14.742h-2.038l-1.58-4.636h-5.242zM174.159 69.243L176.092 69.243 176.092 82.388 182.408 82.388 182.408 83.985 174.159 83.985zM189.668 69.243L197.631 69.243 197.631 70.838 191.601 70.838 191.601 75.736 197.172 75.736 197.172 77.312 191.601 77.312 191.601 83.985 189.668 83.985zM201.507 76.678c0 3.172 1.711 5.993 4.738 5.993s4.738-2.776 4.738-6.122c0-2.956-1.535-6.019-4.717-6.019-3.181 0-4.76 2.934-4.76 6.148M213 76.463c0 5.049-3.091 7.76-6.863 7.76-3.93 0-6.648-3.038-6.648-7.5 0-4.682 2.896-7.743 6.842-7.743 4.06 0 6.67 3.085 6.67 7.483M217.371 69.243v8.749c0 3.28 1.47 4.68 3.445 4.68 2.172 0 3.599-1.441 3.599-4.68v-8.75h1.929v8.619c0 4.527-2.394 6.362-5.593 6.362-3.029 0-5.31-1.702-5.31-6.298v-8.682h1.93zM229.643 83.985V69.243h2.107l4.713 7.457c1.078 1.73 1.954 3.282 2.635 4.793l.062-.024c-.172-1.968-.215-3.763-.215-6.06v-6.166h1.8v14.742h-1.932l-4.697-7.48c-1.03-1.64-2.015-3.324-2.738-4.923l-.069.024c.11 1.859.133 3.63.133 6.08v6.299h-1.8zM245.97 82.498c.485.064 1.185.088 1.93.088 4.103 0 6.296-2.277 6.296-6.257.024-3.48-1.95-5.686-5.987-5.686-.99 0-1.734.086-2.238.195v11.66zm-1.909-13.036c1.165-.197 2.545-.33 4.06-.33 2.743 0 4.695.657 5.987 1.837 1.341 1.206 2.108 2.909 2.108 5.295 0 2.407-.767 4.375-2.127 5.73-1.406 1.38-3.688 2.122-6.562 2.122-1.38 0-2.5-.066-3.466-.177V69.462zM265.61 77.861l-1.472-4.245c-.327-.962-.547-1.836-.766-2.69h-.043c-.222.854-.44 1.771-.747 2.666l-1.449 4.27h4.478zm-4.869 1.488l-1.539 4.636h-1.972l5.044-14.742h2.284l5.044 14.742h-2.039l-1.58-4.636h-5.242zM272.879 70.861L268.382 70.861 268.382 69.243 279.329 69.243 279.329 70.861 274.812 70.861 274.812 83.985 272.879 83.985zM280.942 83.985L282.873 83.985 282.873 69.243 280.942 69.243zM287.341 76.678c0 3.172 1.713 5.993 4.738 5.993 3.029 0 4.74-2.776 4.74-6.122 0-2.956-1.537-6.019-4.716-6.019-3.182 0-4.762 2.934-4.762 6.148m11.494-.215c0 5.049-3.092 7.76-6.864 7.76-3.93 0-6.645-3.038-6.645-7.5 0-4.682 2.893-7.743 6.84-7.743 4.06 0 6.669 3.085 6.669 7.483M301.297 83.985V69.243h2.107l4.715 7.457c1.076 1.73 1.952 3.282 2.633 4.793l.064-.024c-.174-1.968-.217-3.763-.217-6.06v-6.166h1.8v14.742h-1.932l-4.697-7.48c-1.029-1.64-2.015-3.324-2.738-4.923l-.067.024c.108 1.859.132 3.63.132 6.08v6.299h-1.8z" mask="url(#p1txwy6e1h)"/>
                </g>
            </g>
        </g>
    </g>
</svg>
