<svg xmlns="http://www.w3.org/2000/svg" xmlns:xlink="http://www.w3.org/1999/xlink" width="100" height="30" viewBox="0 0 100 30">
    <defs>
        <path id="1c42ai8hza" d="M0 29.434L96.101 29.434 96.101 0.033 0 0.033z"/>
    </defs>
    <g fill="none" fill-rule="evenodd">
        <g>
            <g>
                <path fill="#FFF" fill-opacity=".1" d="M0 0H100V30H0z" transform="translate(-459 -66) translate(459 66)"/>
                <g>
                    <path fill="#58585B" d="M43.808 8.38h1.2V3.79h-1.2v4.59zm-6.402.457h7.602v2.645h-6.402v.822h6.513v.979h-7.713v-2.701h6.402v-.8h-6.402v-.945zm-.912-3.735V4.07h5.558v1.033h-2.357l2.457 2.501-.779.723-2.055-2.145-2.012 2.222-.823-.733 2.434-2.568h-2.423z" transform="translate(-459 -66) translate(459 66) translate(2)"/>
                    <g transform="translate(-459 -66) translate(459 66) translate(2) translate(0 .533)">
                        <path fill="#58585B" d="M53.944 3.258h1.2v5.135h-1.2V7.237h-1.412v-.99h1.412V5.226h-1.412v-.99h1.412v-.977zm-.8 7.613c0-.363-.133-.676-.4-.94-.267-.262-.582-.394-.945-.394s-.676.132-.94.395c-.262.263-.394.576-.394.94 0 .362.132.674.395.933.263.26.576.389.939.389s.678-.13.945-.39c.267-.258.4-.57.4-.933zm1.178.011c0 .326-.067.632-.2.917-.133.286-.31.536-.533.75-.23.215-.499.386-.806.512-.308.126-.632.188-.973.188-.34 0-.667-.062-.978-.188-.311-.126-.582-.297-.811-.511-.223-.215-.4-.465-.534-.75-.133-.286-.2-.592-.2-.918 0-.326.067-.633.2-.922.134-.29.311-.541.534-.756.23-.215.5-.385.811-.511.311-.126.637-.19.978-.19.34 0 .665.064.973.19.307.126.576.296.806.51.222.216.4.468.533.757s.2.596.2.922zM48.21 7.16h2.7V5.747h-2.7V7.16zm3.867 1H47.02v-4.69h1.189v1.267h2.701V3.469h1.167v4.69zM64.87 9.615h-1.2V3.258h1.2v2.6h1.244v1.1H64.87v2.657zm-7.536 3.157V9.871h1.2v1.845h6.513v1.056h-7.713zm3.868-5.691V4.503h-4.124V3.458h5.314V7.08h-1.19zm1.723.923V9.06h-6.28V8.004h1.967V5.836h1.19v2.168h3.123z"/>
                        <mask id="vp0tjxd7wb" fill="#fff">
                            <use xlink:href="#1c42ai8hza"/>
                        </mask>
                        <path fill="#58585B" d="M74.217 12.938h1.2v-9.68h-1.2v9.68zm-1.767-1.333h-5.157V7.18h3.845V4.914h-3.845V3.858h5.045v4.368h-3.856v2.323h3.968v1.056zM78.974 6.392h5.09V5.369h-5.09v1.023zm.022 3.712v1.612h6.38v1.056h-7.591v-2.668h1.211zm5.069-5.768V3.302h1.189v4.135H82.12v.989h3.845v1.056h-8.892V8.426h3.835v-.99h-3.123V3.303h1.19v1.034h5.09zM89.11 7.026h5.091V5.692h-5.09v1.334zm0-2.379h5.091V3.425h1.189V8.08h-7.468V3.425h1.189v1.222zm-1.9 4.735h8.891v1.066h-3.845v2.49h-1.212v-2.49H87.21V9.382zM37.973 20.911L41.118 17.388 42.641 17.388 39.273 21.145 42.629 24.957 41.062 24.957 37.973 21.434 37.973 24.957 36.705 24.957 36.705 17.388 37.973 17.388z" mask="url(#vp0tjxd7wb)"/>
                        <path fill="#58585B" d="M46.409 24.023c.792 0 1.515-.255 2.167-.767l.523.923c-.675.607-1.571.911-2.69.911-1.09 0-2.012-.375-2.768-1.128-.756-.752-1.133-1.68-1.133-2.784 0-1.112.377-2.043 1.133-2.795.756-.752 1.679-1.128 2.768-1.128 1.104 0 1.985.304 2.645.911l-.511.923c-.645-.512-1.356-.767-2.134-.767-.72 0-1.338.266-1.856.8-.52.563-.779 1.248-.779 2.056s.26 1.49.779 2.045c.518.533 1.137.8 1.856.8M55.367 21.178c0-.845-.252-1.511-.756-2-.504-.49-1.189-.735-2.056-.735h-1.056v5.458h1.056c.867 0 1.552-.244 2.056-.733.504-.49.756-1.153.756-1.99m1.267 0c0 1.09-.36 1.991-1.078 2.706-.719.715-1.656 1.073-2.812 1.073h-2.512v-7.57h2.512c1.156 0 2.093.359 2.812 1.073.719.715 1.078 1.622 1.078 2.718M61.647 24.023c.792 0 1.515-.255 2.167-.767l.523.923c-.675.607-1.571.911-2.69.911-1.09 0-2.012-.375-2.768-1.128-.756-.752-1.133-1.68-1.133-2.784 0-1.112.377-2.043 1.133-2.795.756-.752 1.679-1.128 2.768-1.128 1.103 0 1.985.304 2.645.911l-.511.923c-.645-.512-1.356-.767-2.134-.767-.72 0-1.338.266-1.856.8-.52.563-.779 1.248-.779 2.056s.26 1.49.779 2.045c.518.533 1.137.8 1.856.8" mask="url(#vp0tjxd7wb)"/>
                        <path fill="#FEFEFE" d="M29.402 14.734c0 8.118-6.582 14.7-14.702 14.7-8.117 0-14.7-6.582-14.7-14.7C0 6.615 6.583.033 14.7.033c8.12 0 14.702 6.582 14.702 14.7" mask="url(#vp0tjxd7wb)"/>
                        <path fill="#003963" d="M21.612 13.708c-2.338-1.588-5.332-.94-6.903 1.449-1.313 1.996-3.294 2.245-4.062 2.245-2.5 0-4.212-1.76-4.718-3.58h-.002c-.004-.019-.01-.033-.014-.051-.003-.02-.011-.04-.016-.062-.198-.759-.249-1.122-.249-1.93 0-4.352 4.467-9.199 10.9-9.199 6.586 0 10.354 5.015 11.325 7.802l-.048-.149C25.955 4.783 20.786.865 14.7.865 7.043.865.831 7.074.831 14.734c0 6.847 4.94 12.707 11.79 12.707 5.464 0 9.135-3.064 10.818-7.285.926-2.308.27-5.02-1.827-6.448" mask="url(#vp0tjxd7wb)"/>
                        <path fill="#EC1A3A" d="M27.96 10.652c-.81-2.718-4.607-8.071-11.413-8.071-6.432 0-10.898 4.846-10.898 9.199 0 .807.05 1.17.248 1.929-.083-.332-.127-.665-.127-.99 0-4.532 4.538-7.674 9.205-7.674 6.317 0 11.435 5.12 11.435 11.435 0 4.952-2.848 9.236-6.988 11.296v.002c5.338-1.932 9.148-7.043 9.148-13.044 0-1.42-.191-2.673-.61-4.082" mask="url(#vp0tjxd7wb)"/>
                    </g>
                </g>
            </g>
        </g>
    </g>
</svg>
