<svg xmlns="http://www.w3.org/2000/svg" xmlns:xlink="http://www.w3.org/1999/xlink" width="54" height="71" viewBox="0 0 54 71">
    <defs>
        <path id="2jy7jao9za" d="M0.101 0.07L48.174 0.07 48.174 26.838 0.101 26.838z"/>
    </defs>
    <g fill="none" fill-rule="evenodd">
        <g>
            <g>
                <g transform="translate(-1053 -839) translate(1053 839) translate(0 43.15)">
                    <mask id="3vhif15gxb" fill="#fff">
                        <use xlink:href="#2jy7jao9za"/>
                    </mask>
                    <path fill="#2D4C6A" d="M11.05 26.85h-.866C4.624 26.85.1 22.308.1 16.726c0-5.581 4.523-10.122 10.083-10.122h6.843V.07h4.106v6.535h14.964c3.922 0 7.176-2.438 8.097-6.068l3.98 1.018c-1.393 5.486-6.246 9.172-12.077 9.172H21.133v6c0 5.582-4.523 10.122-10.083 10.122zm-.866-16.123c-3.297 0-5.977 2.692-5.977 6 0 3.309 2.68 6 5.977 6h.866c3.296 0 5.977-2.691 5.977-6v-6h-6.843z" mask="url(#3vhif15gxb)"/>
                </g>
                <path fill="#2D4C6A" d="M52.071 38.836c0 2.912-2.374 5.274-5.303 5.274-2.93 0-5.304-2.362-5.304-5.274 0-2.913 2.375-5.274 5.304-5.274 2.929 0 5.303 2.361 5.303 5.274z" transform="translate(-1053 -839) translate(1053 839)"/>
                <path fill="#2D4C6A" d="M46.768 46.027c-3.987 0-7.232-3.226-7.232-7.191 0-3.966 3.245-7.192 7.232-7.192 3.988 0 7.232 3.226 7.232 7.192 0 3.965-3.244 7.191-7.232 7.191zm0-10.26c-1.702 0-3.086 1.376-3.086 3.069 0 1.692 1.384 3.07 3.086 3.07s3.087-1.378 3.087-3.07c0-1.693-1.385-3.07-3.087-3.07zM19.286 45.068C9.184 45.068.964 36.808.964 26.657V8.532c0-3.647 2.953-6.614 6.582-6.614h1.99v4.121h-1.99c-1.367 0-2.48 1.119-2.48 2.493v18.125c0 7.88 6.379 14.29 14.22 14.29 7.84 0 14.22-6.41 14.22-14.29V8.78c0-1.375-1.113-2.492-2.481-2.492h-2.028V2.166h2.028c3.63 0 6.582 2.967 6.582 6.615v17.876c0 10.152-8.218 18.411-18.321 18.411z" transform="translate(-1053 -839) translate(1053 839)"/>
                <path fill="#2D4C6A" d="M25.6 0c-2.418 0-4.386 1.935-4.386 4.315 0 2.379 1.968 4.315 4.386 4.315h4.293V0H25.6zM12.007 0H7.714v8.63h4.293c2.418 0 4.386-1.936 4.386-4.315 0-2.38-1.967-4.315-4.386-4.315z" transform="translate(-1053 -839) translate(1053 839)"/>
            </g>
        </g>
    </g>
</svg>
