<svg xmlns="http://www.w3.org/2000/svg" xmlns:xlink="http://www.w3.org/1999/xlink" width="75" height="42" viewBox="0 0 75 42">
    <defs>
        <path id="f72qct9t7a" d="M0.009 0.097L75 0.097 75 18.712 0.009 18.712z"/>
    </defs>
    <g fill="none" fill-rule="evenodd">
        <g>
            <g>
                <path fill="#2D4C6A" d="M46.688 26.432c-1.886-1.018-4.048-1.596-6.346-1.596h-5.463c-2.362 0-4.58.612-6.5 1.682-4.04 2.248-6.767 6.527-6.767 11.436V42H53.61v-4.046c0-4.972-2.798-9.297-6.922-11.522" transform="translate(-1323 -1099) translate(1323 1099)"/>
                <g transform="translate(-1323 -1099) translate(1323 1099) translate(0 21.145)">
                    <mask id="h04r11w5nb" fill="#fff">
                        <use xlink:href="#f72qct9t7a"/>
                    </mask>
                    <path fill="#2D4C6A" d="M61.772.097h-4.54c-2.652 0-5.123.775-7.196 2.11.996.646 1.932 1.4 2.795 2.254 3.336 3.297 5.172 7.683 5.172 12.348v1.903H75v-5.537C75 5.964 69.066.097 61.772.097M25.075 2.28C22.98.9 20.468.097 17.77.097h-4.541C5.934.097 0 5.964 0 13.175v5.537h17.218v-1.903c0-4.665 1.838-9.05 5.174-12.348.83-.821 1.728-1.551 2.683-2.181" mask="url(#h04r11w5nb)"/>
                </g>
                <path fill="#2D4C6A" d="M59.509 20.156h.07c2.41-.02 4.66-1.024 6.334-2.828 1.635-1.761 2.524-4.083 2.504-6.536-.043-5.1-4.038-9.219-8.922-9.219h-.07c-4.917.04-8.881 4.241-8.838 9.364.042 5.099 4.038 9.219 8.922 9.219M15.505 20.156h.07c2.41-.02 4.66-1.024 6.334-2.828 1.636-1.761 2.525-4.083 2.504-6.536-.042-5.1-4.038-9.219-8.922-9.219h-.07c-4.916.04-8.88 4.241-8.838 9.364.042 5.099 4.038 9.219 8.922 9.219M33.218 20.568c1.333.662 2.823 1.032 4.393 1.032 1.57 0 3.06-.37 4.393-1.032 3.476-1.723 5.885-5.425 5.885-9.703 0-5.92-4.61-10.736-10.278-10.736-5.667 0-10.277 4.815-10.277 10.736 0 4.278 2.408 7.98 5.884 9.703" transform="translate(-1323 -1099) translate(1323 1099)"/>
            </g>
        </g>
    </g>
</svg>
