<svg xmlns="http://www.w3.org/2000/svg" xmlns:xlink="http://www.w3.org/1999/xlink" width="75" height="71" viewBox="0 0 75 71">
    <defs>
        <path id="i0370hzd4a" d="M0 0.143L75 0.143 75 70.169 0 70.169z"/>
    </defs>
    <g fill="none" fill-rule="evenodd">
        <g>
            <g transform="translate(-770 -1085) translate(770 1085)">
                <mask id="3xa0scubkb" fill="#fff">
                    <use xlink:href="#i0370hzd4a"/>
                </mask>
                <path fill="#2D4C6A" d="M72.547 55.483C74.174 52.051 75 48.37 75 44.527c0-13.712-10.885-24.943-24.514-25.602C47.416 7.86 37.326.143 25.782.143 11.566.143.002 11.643.002 25.777c0 3.842.824 7.524 2.452 10.957l-2.41 12.05c-.307 1.534 1.046 2.89 2.58 2.586l12.2-2.411c3.055 1.45 6.306 2.259 9.692 2.42 4.27 15.374 21.418 23.085 35.66 16.329 13.361 2.641 12.32 2.454 12.626 2.454 1.388 0 2.426-1.273 2.154-2.628l-2.409-12.05zm-56.42-10.78c-.44-.225-.942-.295-1.427-.2l-9.702 1.919 1.911-9.558c.097-.485.028-.99-.198-1.432-1.536-3.005-2.316-6.253-2.316-9.655 0-11.71 9.594-21.24 21.387-21.24 9.216 0 17.33 5.994 20.168 14.564-13.434 1.717-23.55 13.838-22.253 27.815-2.648-.255-5.184-.994-7.57-2.214zm51.965 10.91l1.91 9.558-9.702-1.918c-.484-.096-.987-.026-1.426.2-3.005 1.535-6.253 2.314-9.655 2.314-11.711 0-21.24-9.528-21.24-21.24 0-11.711 9.529-21.24 21.24-21.24 11.793 0 21.386 9.529 21.386 21.24 0 3.402-.778 6.65-2.315 9.655-.226.441-.295.946-.198 1.432z" mask="url(#3xa0scubkb)"/>
            </g>
        </g>
    </g>
</svg>
