<svg xmlns="http://www.w3.org/2000/svg" width="75" height="75" viewBox="0 0 75 75">
    <g fill="none" fill-rule="evenodd">
        <g fill="#2D4C6A">
            <path d="M1108.549 1145.36c5.879-6.625 9.451-15.331 9.451-24.86 0-9.914-3.87-18.937-10.177-25.648-.007-.007-.013-.013-.013-.02-6.574-6.976-15.773-11.447-26.009-11.8l-.732-.02c-.19-.006-.38-.012-.569-.012-.19 0-.378.006-.567.013l-.728.02c-10.235.352-19.44 4.823-26.007 11.8-.006.006-.013.012-.013.019h-.006c-6.303 6.711-10.179 15.734-10.179 25.648 0 9.529 3.58 18.235 9.453 24.86.011.012.011.025.018.038.026.03.058.044.082.075 6.605 7.382 16.076 12.136 26.652 12.496l.728.026c.189 0 .378.005.567.005.19 0 .38-.005.569-.011l.726-.02h.006c10.583-.36 20.067-5.127 26.672-12.52.013-.027.043-.033.056-.057.013-.007.013-.02.02-.033zm-62.929-23.565h15.521c.144 5.481 1.22 10.809 3.125 15.797-3.68 1.334-7.198 3.114-10.494 5.343-4.843-5.765-7.86-13.108-8.152-21.14zm8.86-24.538c3.22 2.09 6.642 3.763 10.216 5.02-2.185 5.31-3.398 11.038-3.555 16.928h-15.52c.308-8.41 3.6-16.075 8.859-21.948zm60.906 21.948h-15.526c-.158-5.89-1.364-11.617-3.554-16.927 3.574-1.258 7.002-2.93 10.216-5.02 5.26 5.872 8.555 13.537 8.864 21.947zm-36.18-16.858c-3.738-.102-7.407-.662-10.949-1.655 2.62-5.38 6.32-10.235 10.948-14.276v15.931zm0 2.588v14.27h-15.477c.159-5.619 1.339-11.074 3.448-16.125 3.883 1.123 7.918 1.749 12.028 1.855zm2.589 0c4.11-.106 8.145-.732 12.034-1.855 2.11 5.05 3.29 10.506 3.448 16.125h-15.482v-14.27zm0-2.588v-15.931c4.634 4.04 8.334 8.896 10.954 14.276-3.548.993-7.217 1.553-10.954 1.655zm13.462-2.444c-2.488-5.203-5.936-9.944-10.203-14.011 7.576.99 14.39 4.414 19.636 9.466-2.98 1.886-6.144 3.409-9.433 4.545zm-29.507 0c-3.296-1.136-6.46-2.659-9.434-4.545 5.247-5.052 12.06-8.475 19.632-9.466-4.269 4.067-7.717 8.808-10.198 14.011zm-2.02 21.892h15.475v12.981c-4.274.115-8.46.778-12.488 1.99-1.819-4.723-2.842-9.774-2.988-14.971zm15.475 15.565v17.224c-4.956-4.325-8.839-9.579-11.485-15.412 3.707-1.093 7.559-1.7 11.485-1.812zm2.59 17.224v-17.224c3.928.113 7.778.719 11.485 1.812-2.638 5.833-6.53 11.087-11.485 15.412zm0-19.808v-12.981h15.482c-.145 5.197-1.169 10.248-2.992 14.978-4.023-1.219-8.215-1.882-12.49-1.997zm18.065-12.981h15.526c-.296 8.032-3.309 15.375-8.158 21.14-3.296-2.23-6.812-4.01-10.488-5.343 1.908-4.988 2.975-10.316 3.12-15.797zm-44.326 23.078c3.057-2.032 6.314-3.668 9.718-4.887 2.518 5.632 6.125 10.772 10.696 15.122-7.956-1.04-15.072-4.76-20.414-10.235zm29.52 10.235c4.57-4.35 8.182-9.484 10.696-15.122 3.402 1.22 6.661 2.855 9.723 4.887-5.348 5.475-12.463 9.194-20.42 10.235z" transform="translate(-1043 -1083)"/>
        </g>
    </g>
</svg>
