<svg xmlns="http://www.w3.org/2000/svg" xmlns:xlink="http://www.w3.org/1999/xlink" width="61" height="50" viewBox="0 0 61 50">
    <defs>
        <path id="u04dle1ena" d="M0 0.113L60.995 0.113 60.995 49.681 0 49.681z"/>
    </defs>
    <g fill="none" fill-rule="evenodd">
        <g>
            <g>
                <g transform="translate(-1241 -1148) translate(1241 1148)">
                    <mask id="w6sn4mxc6b" fill="#fff">
                        <use xlink:href="#u04dle1ena"/>
                    </mask>
                    <path fill="#2D4C6A" d="M60.751 14.18L50.541.59c-.377-.502-1.067-.626-1.589-.285L42.36 4.6h-8.597c-.111 0-.222.024-.329.056l-6.666 1.966-6.916-1.938L13.13.304c-.514-.334-1.19-.22-1.573.265L.265 14.901c-.405.515-.339 1.267.15 1.698l5.92 5.22 5.31 7.331c-1.553 1.695-1.522 4.369.093 6.025.717.733 1.627 1.148 2.564 1.244-.033.217-.05.438-.05.662 0 1.157.44 2.245 1.239 3.062.798.819 1.86 1.27 2.989 1.27l.045-.002-.002.088c0 1.157.44 2.245 1.238 3.063.799.818 1.86 1.268 2.99 1.268.222 0 .443-.018.66-.053.09.963.496 1.901 1.215 2.637.823.845 1.906 1.267 2.988 1.267 1.083 0 2.166-.422 2.99-1.267l.646-.662.272.224c.817.811 1.878 1.216 2.939 1.216 1.083 0 2.165-.422 2.989-1.266.84-.862 1.253-1.999 1.235-3.13 1.104.017 2.214-.405 3.056-1.266.84-.861 1.252-1.997 1.235-3.129 1.15.019 2.241-.434 3.055-1.267.84-.862 1.253-2 1.236-3.131 1.105.017 2.214-.404 3.055-1.266 1.435-1.47 1.62-3.744.555-5.421l3.878-8.32 5.83-5.14c.48-.424.554-1.16.166-1.676zM12.748 2.96l4.833 3.149L7.068 19.23l-4.213-3.715L12.748 2.96zm.682 27.823l1.459-1.495c.043-.045.09-.088.138-.128.285-.239.63-.38.996-.415h.031c.052-.005.104-.008.157-.008.5.008.964.217 1.309.59.676.731.64 1.927-.081 2.665l-1.415 1.45c-.715.732-1.879.732-2.594 0-.715-.734-.715-1.926 0-2.66zm3.752 7.627c-.347-.355-.537-.827-.537-1.329s.19-.974.537-1.33l2.829-2.897c.541-.555 1.393-.707 2.085-.369.714.348 1.116 1.142 1.011 1.941-.056.426-.25.828-.546 1.133l-2.784 2.851c-.347.355-.807.55-1.297.55-.49 0-.951-.195-1.298-.55zm4.27 4.418c-.346-.355-.537-.827-.537-1.329s.19-.974.538-1.33l2.827-2.897c.58-.593 1.51-.721 2.219-.298.647.386.987 1.144.875 1.9-.06.415-.253.805-.543 1.103l-2.783 2.85c-.347.356-.808.552-1.298.552s-.95-.196-1.297-.551zm4.865 3.853c-.715-.733-.715-1.925 0-2.658l1.458-1.495c.045-.045.09-.088.138-.128.002 0 .003-.002.004-.003.237-.197.516-.329.813-.387.007 0 .014-.002.02-.003.052-.01.104-.017.157-.022l.063-.003c.042-.002.085-.005.128-.005.5.008.965.216 1.309.59.042.045.082.093.118.142.55.737.476 1.83-.206 2.531l-1.407 1.442c-.716.732-1.88.732-2.595-.001zM48.63 33.004c-.715.733-1.879.733-2.594 0-.026-.027-.054-.052-.082-.075l-7.691-7.963c-.465-.481-1.222-.485-1.691-.009-.47.476-.474 1.252-.01 1.733l7.775 8.049.003.003c.715.732.715 1.925 0 2.658-.347.355-.808.55-1.298.55s-.951-.195-1.297-.55l-5.2-5.384c-.465-.48-1.223-.485-1.692-.009-.47.477-.473 1.253-.009 1.734l5.121 5.301c.026.033.054.065.084.096.715.733.715 1.926 0 2.659-.716.733-1.88.732-2.595 0l-2.839-2.94c-.465-.48-1.222-.485-1.692-.009s-.473 1.252-.008 1.733l2.759 2.856c.026.034.054.066.084.097.715.733.715 1.926 0 2.659-.715.733-1.88.733-2.595 0-.082-.085-.179-.15-.27-.222-.08-.061-.1-.104-.06-.201.04-.099.098-.188.138-.287.043-.11.079-.224.113-.339.184-.606.238-1.257.156-1.885-.159-1.206-.806-2.294-1.787-2.983-.53-.372-1.144-.615-1.78-.707.308-1.392-.061-2.902-1.024-3.944-.792-.857-1.862-1.338-3.013-1.354h-.126c.026-1.126-.373-2.244-1.13-3.064-.793-.857-1.863-1.338-3.014-1.354-.342-.005-.687.032-1.02.11-.143-1.014-.642-1.954-1.399-2.625-.75-.667-1.696-1.037-2.703-1.052-1.06-.015-2.1.385-2.888 1.114l-4.624-6.384L19.794 7.21l3.525.988-4.604 8.324c-.556 1.007-.697 2.175-.396 3.29.301 1.115 1.008 2.043 1.99 2.613.062.036.123.07.186.102l.015.008c.165.084.335.156.507.217.802.285 1.668.316 2.503.08 1.089-.309 1.994-1.033 2.551-2.04l2.992-5.41 5.342.389 14.226 14.575c.715.734.715 1.926 0 2.659zm.496-5.618L35.781 13.713c-.025-.026-.052-.05-.08-.074-.191-.164-.43-.263-.681-.281l-6.541-.476c-.453-.032-.902.215-1.126.619l-3.364 6.082c-.241.437-.634.751-1.106.885-.472.134-.968.071-1.394-.176-.427-.248-.733-.65-.864-1.135-.13-.484-.07-.991.172-1.428l4.49-8.12 1.82-.536.036-.013 6.792-2.01h8.205l10.245 13.344-3.259 6.992zm4.826-8.916L44.478 6.125l4.835-3.15 8.852 11.78-4.213 3.715z" mask="url(#w6sn4mxc6b)"/>
                </g>
            </g>
        </g>
    </g>
</svg>
