<svg xmlns="http://www.w3.org/2000/svg" xmlns:xlink="http://www.w3.org/1999/xlink" width="89" height="50" viewBox="0 0 89 50">
    <defs>
        <path id="9uhi21x82a" d="M0.01 0.116L89 0.116 89 22.276 0.01 22.276z"/>
    </defs>
    <g fill="none" fill-rule="evenodd">
        <g>
            <g>
                <path fill="#2D4C6A" d="M55.403 31.467c-2.238-1.212-4.803-1.9-7.53-1.9H41.39c-2.804 0-5.435.728-7.714 2.002-4.793 2.676-8.03 7.77-8.03 13.614V50h37.97v-4.817c0-5.92-3.32-11.067-8.213-13.716" transform="translate(-951 -883) translate(951 883)"/>
                <g transform="translate(-951 -883) translate(951 883) translate(0 25.172)">
                    <mask id="xgdsynkplb" fill="#fff">
                        <use xlink:href="#9uhi21x82a"/>
                    </mask>
                    <path fill="#2D4C6A" d="M73.303.116h-5.388c-3.147 0-6.08.922-8.539 2.512 1.182.769 2.293 1.667 3.317 2.682 3.958 3.926 6.138 9.147 6.138 14.7v2.266H89v-6.592C89 7.1 81.958.116 73.303.116M29.756 2.714C27.27 1.072 24.289.116 21.086.116h-5.39C7.043.116 0 7.1 0 15.684v6.592h20.432V20.01c0-5.553 2.181-10.774 6.14-14.7.985-.977 2.05-1.846 3.184-2.596" mask="url(#xgdsynkplb)"/>
                </g>
                <path fill="#2D4C6A" d="M70.617 23.995h.084c2.86-.024 5.53-1.22 7.516-3.366 1.94-2.097 2.995-4.86 2.971-7.782-.05-6.07-4.791-10.974-10.587-10.974h-.084c-5.834.048-10.538 5.049-10.487 11.148.05 6.07 4.791 10.974 10.587 10.974M18.399 23.995h.084c2.86-.024 5.53-1.22 7.516-3.366 1.94-2.097 2.996-4.86 2.971-7.782-.05-6.07-4.791-10.974-10.587-10.974h-.084C12.466 1.921 7.76 6.922 7.812 13.021c.05 6.07 4.791 10.974 10.587 10.974M39.419 24.486c1.582.788 3.35 1.228 5.213 1.228 1.864 0 3.631-.44 5.213-1.228 4.125-2.052 6.983-6.458 6.983-11.552 0-7.048-5.47-12.78-12.196-12.78-6.725 0-12.196 5.732-12.196 12.78 0 5.094 2.858 9.5 6.983 11.552" transform="translate(-951 -883) translate(951 883)"/>
            </g>
        </g>
    </g>
</svg>
