<svg xmlns="http://www.w3.org/2000/svg" xmlns:xlink="http://www.w3.org/1999/xlink" width="49" height="51" viewBox="0 0 49 51">
    <defs>
        <path id="rrl32hul7a" d="M0 0L49 0 49 32.135 0 32.135z"/>
    </defs>
    <g fill="none" fill-rule="evenodd">
        <g>
            <g>
                <g transform="translate(-951 -1148) translate(951 1148) translate(0 17.857)">
                    <mask id="tlx3gfinbb" fill="#fff">
                        <use xlink:href="#rrl32hul7a"/>
                    </mask>
                    <path fill="#2D4C6A" d="M49 29.238L46.129 29.238 46.129 0 37.42 0 37.42 29.238 34.549 29.238 34.549 11.618 25.936 11.618 25.936 29.238 23.064 29.238 23.064 5.809 14.451 5.809 14.451 29.238 11.58 29.238 11.58 14.522 2.871 14.522 2.871 29.238 0 29.238 0 32.143 49 32.143z" mask="url(#tlx3gfinbb)"/>
                </g>
                <path fill="#2D4C6A" d="M49 11.698L49 0 37.32 0 37.32 2.925 44.056 2.925 30.08 16.942 18.496 5.243 0 23.825 2.047 25.893 18.496 9.38 30.08 21.078 46.104 4.993 46.104 11.698z" transform="translate(-951 -1148) translate(951 1148)"/>
            </g>
        </g>
    </g>
</svg>
