<svg xmlns="http://www.w3.org/2000/svg" width="37" height="50" viewBox="0 0 37 50">
    <g fill="none" fill-rule="evenodd">
        <g fill="#2D4C6A">
            <g>
                <path d="M37 50H0V0h26.977L37 10.358V50zM1.423 48.53h34.154V10.966L26.388 1.47H1.423v47.058z" transform="translate(-680 -1148) translate(680 1148)"/>
                <path d="M36.026 12L25.316 12 25.316 1 26.793 1 26.793 10.483 36.026 10.483z" transform="translate(-680 -1148) translate(680 1148)"/>
                <path stroke="#224C6D" d="M5.842 7L22.395 7 22.395 6 5.842 6zM5.842 16L27.263 16 27.263 15 5.842 15zM5.842 24L31.158 24 31.158 23 5.842 23zM5.842 32L18.5 32 18.5 31 5.842 31zM5.842 41L18.5 41 18.5 40 5.842 40z" transform="translate(-680 -1148) translate(680 1148)"/>
                <path d="M26.776 38c-2.165 0-4.119-1.34-4.947-3.395-.829-2.055-.37-4.42 1.16-5.994 1.532-1.573 3.835-2.044 5.837-1.192 2 .851 3.306 2.856 3.306 5.081-.004 3.036-2.4 5.497-5.356 5.5zm0-9.524c-1.585 0-3.013.98-3.62 2.484-.606 1.504-.27 3.234.85 4.385 1.12 1.151 2.805 1.496 4.27.873 1.464-.623 2.418-2.09 2.418-3.718-.002-2.221-1.755-4.022-3.918-4.024z" transform="translate(-680 -1148) translate(680 1148)"/>
                <path d="M29.503 44.999c-.148 0-.291-.052-.41-.146l-2.317-1.85-2.317 1.85c-.45.36-1.09.018-1.09-.58v-7.547c0-.968 1.363-.968 1.363 0v6.095l1.635-1.306c.243-.193.576-.193.818 0l1.636 1.306v-6.095c0-.968 1.363-.968 1.363 0v7.547c0 .4-.305.726-.681.726z" transform="translate(-680 -1148) translate(680 1148)"/>
            </g>
        </g>
    </g>
</svg>
