<svg xmlns="http://www.w3.org/2000/svg" xmlns:xlink="http://www.w3.org/1999/xlink" width="18" height="18" viewBox="0 0 18 18">
    <defs>
        <path id="6mxlbouiha" d="M0.002 0.005L17.995 0.005 17.995 18 0.002 18z"/>
    </defs>
    <g fill="none" fill-rule="evenodd">
        <g>
            <g>
                <g transform="translate(-645 -494) translate(645 494)">
                    <mask id="rwa5b4dveb" fill="#fff">
                        <use xlink:href="#6mxlbouiha"/>
                    </mask>
                    <path fill="#666" d="M16.71 12.859h-2.571V10.93h.643c.355 0 .642-.288.642-.643 0-.355-.287-.643-.642-.643H3.213c-.355 0-.642.288-.642.643 0 .355.287.643.642.643h.643v1.928h-2.57v-7.07H16.71v7.07zM5.14 16.715h7.713V10.93H5.14v5.784zm0-12.211h7.713V1.29H5.14v3.214zm12.211 0H14.14V.648c0-.355-.288-.643-.643-.643H4.5c-.355 0-.643.288-.643.643v3.856H.643c-.355 0-.643.288-.643.642v8.355c0 .355.288.643.643.643h3.213v3.213c0 .355.288.643.643.643h8.997c.355 0 .643-.288.643-.643v-3.213h3.213c.355 0 .643-.288.643-.643V5.146c0-.354-.288-.642-.643-.642z" mask="url(#rwa5b4dveb)"/>
                </g>
                <path fill="#666" d="M14.782 8.36h.642c.355 0 .643-.288.643-.643 0-.355-.288-.643-.643-.643h-.642c-.355 0-.643.288-.643.643 0 .355.288.643.643.643M10.926 12.216H7.069c-.354 0-.642.288-.642.643 0 .355.288.642.642.642h3.857c.354 0 .642-.287.642-.642 0-.355-.288-.643-.642-.643M10.926 14.144H7.069c-.354 0-.642.288-.642.643 0 .355.288.642.642.642h3.857c.354 0 .642-.287.642-.642 0-.355-.288-.643-.642-.643" transform="translate(-645 -494) translate(645 494)"/>
            </g>
        </g>
    </g>
</svg>
