<svg xmlns="http://www.w3.org/2000/svg" width="788" height="27" viewBox="0 0 788 27">
    <g fill="none" fill-rule="evenodd">
        <g>
            <g>
                <text fill="#666" font-family="NotoSansCJKkr-Medium, Noto Sans CJK KR" font-size="18" font-weight="400" transform="translate(-680 -1975) translate(680 1975)">
                    <tspan x="0" y="21">1. 서류전형</tspan>
                </text>
                <text fill="#666" font-family="NotoSansCJKkr-Medium, Noto Sans CJK KR" font-size="18" font-weight="400" transform="translate(-680 -1975) translate(680 1975)">
                    <tspan x="216" y="21">2. 면접전형</tspan>
                </text>
                <text fill="#666" font-family="NotoSansCJKkr-Medium, Noto Sans CJK KR" font-size="18" font-weight="400" transform="translate(-680 -1975) translate(680 1975)">
                    <tspan x="432" y="21">3. 인성검사</tspan>
                </text>
                <text fill="#666" font-family="NotoSansCJKkr-Medium, Noto Sans CJK KR" font-size="18" font-weight="400" transform="translate(-680 -1975) translate(680 1975)">
                    <tspan x="648" y="21">4. 합격자 신체검사</tspan>
                </text>
                <path fill="#979797" fill-rule="nonzero" d="M170 6.5l14 7-14 7v-14zm-50 6v2h-4v-2h4zm8 0v2h-4v-2h4zm8 0v2h-4v-2h4zm8 0v2h-4v-2h4zm8 0v2h-4v-2h4zm8 0v2h-4v-2h4zm8 0v2h-4v-2h4zM386 6.5l14 7-14 7v-14zm-50 6v2h-4v-2h4zm8 0v2h-4v-2h4zm8 0v2h-4v-2h4zm8 0v2h-4v-2h4zm8 0v2h-4v-2h4zm8 0v2h-4v-2h4zm8 0v2h-4v-2h4zM599 6.5l14 7-14 7v-14zm-50 6v2h-4v-2h4zm8 0v2h-4v-2h4zm8 0v2h-4v-2h4zm8 0v2h-4v-2h4zm8 0v2h-4v-2h4zm8 0v2h-4v-2h4zm8 0v2h-4v-2h4z" transform="translate(-680 -1975) translate(680 1975)"/>
            </g>
        </g>
    </g>
</svg>
